<svg fill="none" height="37" viewBox="0 0 37 37" width="37" xmlns="http://www.w3.org/2000/svg" xmlns:xlink="http://www.w3.org/1999/xlink"><linearGradient id="a" gradientUnits="userSpaceOnUse" x1="2441.72" x2="-1169.84" y1="-263.405" y2="3364.82"><stop offset="0" stop-color="#17ccfc"/><stop offset=".5" stop-color="#5d31ff"/><stop offset="1" stop-color="#f35aff"/></linearGradient><clipPath id="b"><path d="m.421387.421387h36v36h-36z"/></clipPath><g clip-path="url(#b)"><path d="m28.9664 5.16213-4.3012 4.32096c-.135.13546-.3116.22152-.5014.24437-.1899.0228-.3818-.01896-.545-.11861-1.6907-1.02485-3.6428-1.53624-5.6187-1.47187-1.976.06432-3.8907.70161-5.5111 1.83427-.9984.69845-1.8647 1.56875-2.5584 2.57035-1.12752 1.6327-1.76136 3.5553-1.82587 5.5383-.06456 1.9831.44299 3.9429 1.46203 5.6453.0984.1638.13949.3557.11669.5454-.02275.1898-.10805.3666-.24245.5024l-4.3008 4.3205c-.08653.0875-.19098.1552-.30617.1984-.1152.0432-.23839.061-.36111.0521-.12271-.009-.24203-.0444-.34974-.1039s-.20125-.1416-.27418-.2407c-2.32839-3.2171-3.530654-7.1124-3.42048-11.0822.10856-3.9695 1.5238-7.7922 4.02624-10.87539.76301-.94157 1.62029-1.80269 2.5584-2.56992 3.06074-2.51024 6.86854-3.93271 10.82544-4.043994 3.9562-.109306 7.8366 1.098944 11.0314 3.434874.0997.07326.1823.1673.2422.27562.0598.10831.0954.22833.1043.35174.0092.12338-.0083.2473-.0513.36328-.0431.11598-.1107.22129-.1983.30872z" fill="url(#a)"/><path d="m28.9625 31.6646-4.3017-4.3209c-.135-.1354-.3116-.2214-.5014-.2442s-.3818.0189-.545.1184c-1.5939.9665-3.4222 1.4776-5.2863 1.4779-1.864-.0003-3.6923-.5114-5.2862-1.4779-.1631-.0999-.3551-.1418-.545-.119-.19.0229-.3666.1091-.5014.2448l-4.30079 4.3209c-.09048.0872-.16071.1932-.20568.3104-.04493.1173-.06356.2431-.05448.3684.00902.1251.0454.2468.10651.3565.0611.1096.14554.2045.24725.278 3.05819 2.2368 6.74859 3.4427 10.53739 3.4435 3.7887-.0009 7.479-1.2068 10.537-3.4435.1023-.0728.1873-.1674.2489-.2767.0617-.1095.0985-.2312.1077-.3564.0094-.1252-.0088-.251-.0531-.3685-.0444-.1174-.1139-.2238-.2037-.3117zm-10.6252-8.11c2.8257 0 5.1168-2.3016 5.1168-5.1408 0-2.8388-2.2911-5.1399-5.1168-5.1399-2.8263 0-5.1178 2.3011-5.1178 5.1403 0 2.8388 2.2915 5.1404 5.1178 5.1404z" fill="#fff"/></g></svg>