<svg height="136" viewBox="0 0 163 136" width="163" xmlns="http://www.w3.org/2000/svg"><g fill="#fff" fill-rule="evenodd"><path d="m.4 67.8c0-13.0560653 2.399976-25.3679422 7.2-36.936s11.7119549-21.81595536 20.736-30.744h18.144c-18.8160941 18.6240931-28.224 41.1838675-28.224 67.68s9.4079059 49.055907 28.224 67.68h-18.144c-9.0240451-8.928045-15.935976-19.175942-20.736-30.744-4.800024-11.5680578-7.2-23.8799347-7.2-36.936zm162.2 0c0 13.0560653-2.399976 25.3679422-7.2 36.936-4.800024 11.568058-11.711955 21.815955-20.736 30.744h-18.144c18.816094-18.624093 28.224-41.1838675 28.224-67.68s-9.407906-49.0559069-28.224-67.68h18.144c9.024045 8.92804464 15.935976 19.1759422 20.736 30.744s7.2 23.8799347 7.2 36.936z"/><g transform="translate(67 9)"><path d="m0 0h12v69h-12z"/><path d="m27 6h11v69h-11z" transform="matrix(-.70710678 -.70710678 -.70710678 .70710678 84.118795 34.843146)"/></g></g></svg>