<svg height="142" preserveAspectRatio="xMidYMid" viewBox="0 0 256 142" width="256" xmlns="http://www.w3.org/2000/svg"><path d="m0 112.012238c0-4.752892 5.74647061-7.13334 9.10731886-3.772331l24.45202894 24.452135c3.3608483 3.361009.9805608 9.107266-3.7723317 9.107266h-24.45208762c-2.94639859 0-5.33492848-2.38845-5.33492848-5.334934zm0-25.7559932c0 1.4148245.56207262 2.7720316 1.56256477 3.7723317l50.20821983 50.2081295c1.0004601 1.0003 2.3574539 1.562602 3.7722783 1.562602h27.5773399c4.7528925 0 7.13334-5.746257 3.7723317-9.107266l-77.78541564-77.7854687c-3.36084825-3.3610083-9.10731886-.9805609-9.10731886 3.7723317zm0-53.3333866c0 1.4148777.56207262 2.7718715 1.56256477 3.7723317l103.54150023 103.5415161c1.0003 1.0003 2.357507 1.562602 3.772331 1.562602h27.57734c4.752893 0 7.13334-5.746257 3.772332-9.107266l-131.11874914-131.11874872c-3.3607949-3.3607949-9.10731886-.98056083-9.10731886 3.7723317zm53.3333333 0c0 1.4148777.5623021 2.7718715 1.5626021 3.7723317l95.9967986 95.9968521c3.361009 3.361009 9.107266.980561 9.107266-3.772331v-27.57734c0-1.4148248-.562302-2.7720319-1.562602-3.772332l-95.9967992-95.99679907c-3.3610083-3.3607949-9.1072655-.98050748-9.1072655 3.77238505zm62.4405987-31.34956492c-3.361008-3.36084825-9.107265-.98056083-9.107265 3.7723317v27.57723322c0 1.4148777.562302 2.7718715 1.562602 3.7723317l42.663465 42.663519c3.361009 3.3610083 9.107266.9805608 9.107266-3.7723317v-27.5773399c0-1.4148244-.562302-2.7720316-1.562602-3.7723317z" fill="#f9bd2b"/><path d="m226.866993 112.666301-50.216131-50.2166648c-3.361008-3.3610083-9.107266-.9805609-9.107266 3.7723317v70.2418721c0 2.946484 2.38845 5.334934 5.334934 5.334934h77.786536c2.946484 0 5.334934-2.38845 5.334934-5.334934v-6.396585c0-2.946484-2.398586-5.29919-5.320529-5.679571-8.966424-1.167817-17.353473-5.262912-23.812478-11.721383zm-33.723717 12.06602c-4.710213 0-8.533226-3.823014-8.533226-8.533227 0-4.710746 3.823013-8.53376 8.533226-8.53376 4.710747 0 8.53376 3.823014 8.53376 8.53376 0 4.710213-3.823013 8.533227-8.53376 8.533227z" fill="#fff"/><path d="m8.65608667 107.833264.45123219.406109 24.45208234 24.452136c3.2146733 3.214877 1.1766362 8.6121-3.1661747 9.075346l-.6062104.031919h-24.45208229c-2.73594649 0-4.99086896-2.059428-5.29904183-4.712753l-.03589198-.622181v-24.452135c0-4.546245 5.2576404-6.92186 8.65608667-4.178441zm0-53.3322663.45123219.4061091 44.22601444 44.2260678v42.6666664l-51.77076853-51.770731c-.83374346-.834028-1.36302891-1.9151671-1.51629785-3.0711435l-.04626692-.7011882v-27.5773398c0-4.5462451 5.2576404-6.9218598 8.65608667-4.1784408zm-8.65608667-49.15537272c0-4.54624503 5.2576404-6.92171336 8.65608667-4.17842164l.45123219.40608994 44.22601444 44.22601452v42.6666666l-51.77076853-51.7707845c-.83374346-.8337168-1.36302891-1.9150264-1.51629785-3.0710992l-.04626692-.7012325z" fill="#1d4aff"/><path d="m53.3333867 45.7998412 51.7706783 51.7707313c.834028.8335834 1.363149 1.9150189 1.516356 3.0711065l.046246.701225v40.456937l-51.7707316-51.770731c-.8335834-.834028-1.3629644-1.9151671-1.5162696-3.0711435l-.0462791-.7011882zm0 53.3322664 33.5593478 33.5594014c3.2148775 3.214877 1.1767028 8.6121-3.1661204 9.075346l-.6062113.031919h-29.7870161zm8.6560251-97.96490426.451187.40608994 42.6634662 42.66341232c.834028.8335834 1.363149 1.915019 1.516356 3.0711066l.046246.7012251v40.4569371l-51.7707316-51.7707845c-.8335834-.8337168-1.3629644-1.9150264-1.5162696-3.0710992l-.0462791-.7012325v-27.57723322c0-4.54624503 5.2578844-6.92171336 8.6560251-4.17842164z" fill="#f54e00"/></svg>