<svg fill="none" height="38" viewBox="0 0 38 38" width="38" xmlns="http://www.w3.org/2000/svg"><path clip-rule="evenodd" d="m34.921 35.7639c1.4986-1.4984 1.781-3.5253 1.6157-5.2758-.1673-1.7731-.8185-3.6983-1.7432-5.6187-.8331-1.7305-1.9441-3.5711-3.2886-5.448 1.3445-1.877 2.4555-3.7176 3.2886-5.4481.9247-1.9204 1.5759-3.8456 1.7432-5.61866.1653-1.75056-.1171-3.77736-1.6157-5.27579-1.4984-1.49844-3.5251-1.78092-5.2758-1.61567-1.7729.16735-3.6981.81858-5.6185 1.7432-1.7307.83324-3.5713 1.94413-5.448 3.28857-1.8768-1.34444-3.7174-2.45533-5.4481-3.28857-1.9204-.92462-3.84562-1.57585-5.61849-1.7432-1.75071-.16525-3.77751.11723-5.27595 1.61567-1.498427 1.49843-1.78091 3.52523-1.615661 5.27579.167368 1.77306.818581 3.69826 1.743201 5.61866.83326 1.7305 1.94412 3.5711 3.28857 5.4481-1.34445 1.8769-2.45531 3.7175-3.28857 5.448-.92462 1.9204-1.575833 3.8456-1.743201 5.6187-.165249 1.7505.117234 3.7774 1.615661 5.2758 1.49844 1.4984 3.52524 1.7809 5.27595 1.6157 1.77287-.1674 3.69809-.8187 5.61849-1.7432 1.7307-.8334 3.5713-1.9443 5.4481-3.2886 1.8767 1.3443 3.7173 2.4552 5.448 3.2886 1.9204.9245 3.8456 1.5758 5.6185 1.7432 1.7507.1652 3.7774-.1173 5.2758-1.6157zm-16.3423-6.8128c1.6743-1.3089 3.377-2.8131 5.0468-4.4827 1.6699-1.6698 3.1741-3.3728 4.483-5.047-1.3089-1.6743-2.8131-3.3773-4.483-5.0471-1.6698-1.6696-3.3725-3.1738-5.0468-4.48273-1.6744 1.30893-3.3771 2.81313-5.0469 4.48273-1.6699 1.6698-3.1741 3.3728-4.48295 5.0471 1.30885 1.6742 2.81305 3.3772 4.48295 5.047 1.6698 1.6696 3.3725 3.1738 5.0469 4.4827zm2.2711 1.6689c1.5759-1.2686 3.1561-2.6867 4.6985-4.2291 1.5421-1.5421 2.9604-3.1226 4.229-4.6984 3.7241 5.4172 5.157 10.2129 3.2212 12.1487-1.936 1.936-6.7315.5031-12.1487-3.2212zm-13.46981-8.9275c1.26884 1.5758 2.68691 3.1563 4.22911 4.6984 1.5423 1.5424 3.1225 2.9605 4.6986 4.2291-5.4174 3.7243-10.21297 5.1572-12.14889 3.2212-1.93592-1.9358-.50301-6.7315 3.22118-12.1487zm0-4.5423c1.26884-1.5758 2.68691-3.1563 4.22911-4.6984 1.5423-1.5423 3.1225-2.96045 4.6986-4.22909-5.4174-3.72423-10.21297-5.15713-12.14889-3.22122-1.93592 1.93592-.50301 6.73151 3.22118 12.14871zm13.46981-8.92749c1.5759 1.26864 3.1561 2.68679 4.6985 4.22909 1.5421 1.5421 2.9604 3.1226 4.229 4.6984 3.7241-5.4172 5.157-10.21279 3.2212-12.14871-1.936-1.93591-6.7315-.50301-12.1487 3.22122z" fill="#fff" fill-rule="evenodd" stroke="#fff" stroke-width=".962989"/></svg>