<svg fill="none" height="11" viewBox="0 0 26 11" width="26" xmlns="http://www.w3.org/2000/svg"><g fill="#22b5bf"><path d="m25.1146 5.412-5.148 2.016v-.852l2.532-.93599 1.608-.60001v-.048l-1.608-.6-2.532-.936v-.852l5.148 2.016z"/><path d="m18.6873.480011h.72l-3.204 10.439989h-.72z"/><path d="m8.04086 4.85999h1.32c.616 0 1.08804-.124 1.41604-.372.328-.256.492-.64.492-1.152 0-.52-.164-.884-.492-1.092s-.80004-.312-1.41604-.312h-1.32zm3.32404 4.14-1.89604-3.324h-1.428v3.324h-.996v-7.872h2.46c.4 0 .76804.04 1.10404.12.344.072.636.196.876.372.248.176.44.404.576.684s.204.624.204 1.032c0 .616-.16 1.108-.48 1.476s-.748.62-1.284.756l1.992 3.432z"/><path d="m.40802 4.62 5.148-2.016v.852l-2.532.936-1.608.6v.048l1.608.60001 2.532.93599v.852l-5.148-2.016z"/></g></svg>