<svg fill="none" height="37" viewBox="0 0 37 37" width="37" xmlns="http://www.w3.org/2000/svg" xmlns:xlink="http://www.w3.org/1999/xlink"><clipPath id="a"><path d="m.182617.855652h36v36h-36z"/></clipPath><g clip-path="url(#a)"><path d="m.182617 18.8557v-18.000048h35.999983v36.000048h-35.999983" fill="#007acc"/><path d="m8.07556 18.9187v1.467h4.68004v13.32h3.321v-13.32h4.68v-1.44c0-.81 0-1.467-.036-1.485 0-.027-2.853-.036-6.318-.036l-6.30004.027v1.476zm21.03304-1.503c.918.216 1.62.63 2.25 1.287.333.36.828.99.864 1.152 0 .054-1.557 1.107-2.502 1.692-.036.027-.18-.126-.324-.36-.468-.666-.945-.954-1.692-1.008-1.08-.072-1.8.495-1.8 1.44 0 .288.054.45.162.684.243.495.693.792 2.088 1.404 2.574 1.107 3.69 1.836 4.365 2.88.765 1.17.936 3.006.423 4.383-.576 1.503-1.98 2.52-3.987 2.853-.63.108-2.07.09-2.745-.027-1.44-.27-2.817-.99-3.663-1.917-.333-.36-.972-1.323-.936-1.386l.342-.216 1.35-.783 1.017-.594.234.315c.297.468.963 1.098 1.35 1.314 1.17.603 2.736.522 3.51-.18.333-.306.477-.63.477-1.08 0-.414-.063-.603-.27-.918-.288-.396-.864-.72-2.484-1.44-1.863-.792-2.655-1.296-3.393-2.07-.423-.468-.81-1.197-.99-1.8-.135-.522-.18-1.8-.054-2.313.387-1.8 1.746-3.06 3.69-3.42.63-.126 2.115-.072 2.736.09z" fill="#fff"/></g></svg>