<svg fill="none" height="10" viewBox="0 0 10 10" width="10" xmlns="http://www.w3.org/2000/svg"><path d="m2.29828 9.19601c-.33806 0-.64772-.08239-.92897-.24716-.28125-.16761-.505685-.39205-.673298-.6733-.164773-.28125-.247159-.5909-.247159-.92897 0-.34091.082386-.65199.247159-.93324.167613-.28125.392048-.50568.673298-.6733.28125-.16761.59091-.25142.92897-.25142h.98864v-1.71307h-.98864c-.33806 0-.64772-.08238-.92897-.24715-.28125-.16762-.505685-.39063-.673298-.66904-.164773-.28125-.247159-.59233-.247159-.93324s.082386-.65057.247159-.928975c.167613-.28125.392048-.504261.673298-.669033.28125-.167614.59091-.2514213.92897-.2514213.34091 0 .65199.0838073.93324.2514213.28125.164772.50569.387783.6733.669033.16761.278405.25142.588065.25142.928975v.98012h1.71307v-.98012c0-.34091.08238-.65057.24716-.928975.16761-.28125.39062-.504261.66903-.669033.28125-.167614.59233-.2514213.93324-.2514213s.65057.0838073.92898.2514213c.28125.164772.50426.387783.66903.669033.16761.278405.25142.588065.25142.928975s-.08381.65199-.25142.93324c-.16477.27841-.38778.50142-.66903.66904-.27841.16477-.58807.24715-.92898.24715h-.98011v1.71307h.98011c.34091 0 .65057.08381.92898.25142.28125.16762.50426.39205.66903.6733.16761.28125.25142.59233.25142.93324 0 .33807-.08381.64772-.25142.92897-.16477.28125-.38778.50569-.66903.6733-.27841.16477-.58807.24716-.92898.24716s-.65199-.08239-.93324-.24716c-.27841-.16761-.50142-.39205-.66903-.6733-.16478-.28125-.24716-.5909-.24716-.92897v-.98864h-1.71307v.98864c0 .33807-.08381.64772-.25142.92897s-.39205.50569-.6733.6733c-.28125.16477-.59233.24716-.93324.24716zm0-.86932c.18182 0 .3466-.04403.49432-.1321.15057-.08807.26989-.20597.35796-.35369.09091-.15057.13636-.31535.13636-.49432v-.98864h-.98864c-.17897 0-.34375.04546-.49431.13636-.14773.08807-.26563.20739-.3537.35796-.08807.14773-.1321.3125-.1321.49432 0 .17897.04403.34375.1321.49432.08807.14772.20597.26562.3537.35369.15056.08807.31534.1321.49431.1321zm0-5.42045h.98864v-.98012c0-.18182-.04545-.34659-.13636-.49432-.08807-.14772-.20739-.26562-.35796-.35369-.14772-.088067-.3125-.132101-.49432-.132101-.17897 0-.34375.044034-.49431.132101-.14773.08807-.26563.20597-.3537.35369-.08807.14773-.1321.3125-.1321.49432s.04403.34801.1321.49858c.08807.14773.20597.26563.3537.3537.15056.08522.31534.12784.49431.12784zm4.44035 0h.98011c.18182 0 .34659-.04262.49432-.12784.14772-.08807.26562-.20597.35369-.3537.08807-.15057.1321-.31676.1321-.49858s-.04403-.34659-.1321-.49432c-.08807-.14772-.20597-.26562-.35369-.35369-.14773-.088067-.3125-.132101-.49432-.132101s-.34801.044034-.49858.132101c-.14773.08807-.26563.20597-.35369.35369-.08523.14773-.12784.3125-.12784.49432zm.98011 5.42045c.18182 0 .34659-.04403.49432-.1321.14772-.08807.26562-.20597.35369-.35369.08807-.15057.1321-.31535.1321-.49432 0-.18182-.04403-.34659-.1321-.49432-.08807-.15057-.20597-.26989-.35369-.35796-.14773-.0909-.3125-.13636-.49432-.13636h-.98011v.98864c0 .17897.04261.34375.12784.49432.08806.14772.20596.26562.35369.35369.15057.08807.31676.1321.49858.1321zm-3.5625-2.83807h1.71307v-1.71307h-1.71307z" fill="#fff"/></svg>