<svg fill="none" height="20" viewBox="0 0 20 20" width="20" xmlns="http://www.w3.org/2000/svg"><path d="m7.937 13.5c-.08928-.3461-.26966-.6619-.52238-.9146s-.56855-.4331-.91462-.5224l-6.134999-1.582c-.104669-.0297-.196791-.0927-.262388-.1796-.0655962-.0868-.10108712-.1926-.10108712-.3014s.03549092-.21463.10108712-.30144c.065597-.08681.157719-.14985.262388-.17956l6.134999-1.58299c.34595-.0892.66169-.26943.9144-.52197.25271-.25253.43317-.56815.5226-.91403l1.582-6.135005c.02941-.105082.09238-.197658.17932-.263605.08694-.0659476.19306-.10164414.30218-.10164414.1091 0 .2152.03569654.3022.10164414.0869.065947.1499.158523.1793.263605l1.581 6.135005c.0893.34607.2697.66189.5224.91461s.5685.43311.9146.52239l6.135 1.58099c.1055.0291.1985.09201.2648.17908s.1023.19349.1023.30292c0 .1094-.036.2159-.1023.3029-.0663.0871-.1593.15-.2648.1791l-6.135 1.581c-.3461.0893-.6619.2697-.9146.5224s-.4331.5685-.5224.9146l-1.582 6.135c-.0294.1051-.0924.1977-.1793.2636-.087.066-.1931.1017-.3022.1017-.10912 0-.21524-.0357-.30218-.1017-.08693-.0659-.14991-.1585-.17932-.2636z" fill="#fff"/></svg>