<svg fill="none" height="36" viewBox="0 0 36 36" width="36" xmlns="http://www.w3.org/2000/svg"><path d="m18 21.2236c1.7721 0 3.2087-1.4366 3.2087-3.2087 0-1.7722-1.4366-3.2087-3.2087-3.2087s-3.2087 1.4365-3.2087 3.2087c0 1.7721 1.4366 3.2087 3.2087 3.2087z" fill="#61dafb"/><g stroke="#61dafb" stroke-width="1.56522"><path d="m18 21.2236c1.7721 0 3.2087-1.4366 3.2087-3.2087 0-1.7722-1.4366-3.2087-3.2087-3.2087s-3.2087 1.4365-3.2087 3.2087c0 1.7721 1.4366 3.2087 3.2087 3.2087z"/><path d="m17.9999 24.5888c9.5089 0 17.2174-2.9433 17.2174-6.5739 0-3.6307-7.7085-6.5739-17.2174-6.5739-9.50888 0-17.217368 2.9432-17.217368 6.5739 0 3.6306 7.708488 6.5739 17.217368 6.5739z"/><path d="m12.3068 21.3018c4.7544 8.235 11.1576 13.4391 14.3019 11.6238 3.1442-1.8153 1.8389-9.9627-2.9156-18.1977-4.7544-8.23492-11.1576-13.43904-14.30184-11.62371-3.14425 1.81534-1.83893 9.96271 2.91554 18.19761z"/><path d="m12.3068 14.728c-4.75447 8.2349-6.05979 16.3823-2.91554 18.1976 3.14424 1.8153 9.54744-3.3888 14.30184-11.6237 4.7545-8.235 6.0598-16.38235 2.9156-18.19769-3.1443-1.81533-9.5475 3.38879-14.3019 11.62379z"/></g></svg>