<svg fill="none" height="37" viewBox="0 0 37 37" width="37" xmlns="http://www.w3.org/2000/svg" xmlns:xlink="http://www.w3.org/1999/xlink"><clipPath id="a"><path d="m.602112.491089h36v36h-36z"/></clipPath><g clip-path="url(#a)"><path d="m21.4663 4.23522c-.609-1.01077-1.7029-1.62877-2.883-1.62877s-2.2739.618-2.883 1.62877l-4.7425 8.12288c7.3724 3.6807 12.2412 10.9936 12.7933 19.2152h-3.3299c-.551-7.047-4.7898-13.2764-11.14277-16.3755l-4.38937 7.5895c3.56693 1.5998 6.07404 4.9054 6.65254 8.7716h-7.64718c-.18424-.0131-.3495-.1181-.43957-.2793-.09007-.1613-.09281-.3571-.00729-.5208l2.11901-3.6037c-.71792-.599-1.53841-1.063-2.42173-1.3694l-2.09738 3.6037c-.44105.7565-.560472 1.6583-.331553 2.5035.22892.8452.787073 1.5635 1.549623 1.994.49739.2802 1.058.4291 1.62889.4324h10.47248c.3956-4.8815-1.7916-9.6142-5.76597-12.4761l1.66497-2.883c5.0173 3.446 7.8403 9.2867 7.4237 15.3591h8.8724c.4205-9.201-4.0846-17.9313-11.8275-22.9198l3.3659-5.76602c.1561-.26156.4939-.34842.7568-.19461.382.20902 14.624 25.06053 14.8907 25.34883.0956.1714.0922.381-.0091.5492-.1012.1682-.2847.2694-.481.2652h-3.4308c.0433.9178.0433 1.8331 0 2.7461h3.4452c.8837.0058 1.7329-.3422 2.3584-.9664.6255-.6241.9753-1.4726.9715-2.3563.0004-.5778-.1539-1.1452-.4469-1.6433z" fill="#fff"/></g></svg>