<svg fill="none" height="37" viewBox="0 0 37 37" width="37" xmlns="http://www.w3.org/2000/svg" xmlns:xlink="http://www.w3.org/1999/xlink"><clipPath id="a"><path d="m.406738.906799h36v36h-36z"/></clipPath><g clip-path="url(#a)" fill="#635bff"><g clip-rule="evenodd" fill-rule="evenodd"><path d="m36.4067 18.6468c0-2.56-1.24-4.58-3.61-4.58-2.38 0-3.82 2.02-3.82 4.56 0 3.01 1.7 4.53 4.14 4.53 1.19 0 2.09-.27 2.77-.65v-2c-.68.34-1.46.55-2.45.55-.97 0-1.83-.34-1.94-1.52h4.89c0-.13.02-.65.02-.89zm-4.94-.95c0-1.13.69-1.6 1.32-1.6.61 0 1.26.47 1.26 1.6z"/><path d="m25.1167 14.0668c-.98 0-1.61.46-1.96.78l-.13-.62h-2.2v11.66l2.5-.53.01-2.83c.36.26.89.63 1.77.63 1.79 0 3.42-1.44 3.42-4.61-.01-2.9-1.66-4.48-3.41-4.48zm-.6 6.89c-.59 0-.94-.21-1.18-.47l-.01-3.71c.26-.29.62-.49 1.19-.49.91 0 1.54 1.02 1.54 2.33 0 1.34-.62 2.34-1.54 2.34z"/><path d="m17.3867 13.4768 2.51-.54v-2.03l-2.51.53z"/></g><path d="m19.8967 14.2368h-2.51v8.75h2.51z"/><path clip-rule="evenodd" d="m14.6967 14.9768-.16-.74h-2.16v8.75h2.5v-5.93c.59-.77 1.59-.63 1.9-.52v-2.3c-.32-.12-1.49-.34-2.08.74z" fill-rule="evenodd"/><path clip-rule="evenodd" d="m9.69674 12.0668-2.44.52-.01 8.01c0 1.48 1.11 2.57 2.59 2.57.81996 0 1.41996-.15 1.74996-.33v-2.03c-.32.13-1.89996.59-1.89996-.89v-3.55h1.89996v-2.13h-1.89996z" fill-rule="evenodd"/><path clip-rule="evenodd" d="m2.93674 16.7768c0-.39.32-.54.85-.54.76 0 1.72.23 2.48.64v-2.35c-.83-.33-1.65-.46-2.48-.46-2.03 0-3.380002 1.06-3.380002 2.83 0 2.76 3.800002 2.32 3.800002 3.51 0 .46-.4.61-.96.61-.83 0-1.89-.34-2.730002-.8v2.38c.930002.4 1.870002.57 2.730002.57 2.08 0 3.51-1.03 3.51-2.82-.01-2.98-3.82-2.45-3.82-3.57z" fill-rule="evenodd"/></g></svg>