<svg fill="none" height="24" viewBox="0 0 24 24" width="24" xmlns="http://www.w3.org/2000/svg" xmlns:xlink="http://www.w3.org/1999/xlink"><clipPath id="a"><path d="m0 0h24v24h-24z"/></clipPath><g clip-path="url(#a)" fill="#fff"><path d="m15.0389.62735-2.3412-.62735-1.973 7.36344-1.78131-6.647762-2.34135.627352 1.92458 7.18242-4.79363-4.79361-1.71395 1.71394 5.25801 5.25802-6.548018-1.75451-.627347 2.34131 7.154525 1.917c-.08191-.3533-.12525-.7214-.12525-1.0997 0-2.67732 2.17043-4.84774 4.84784-4.84774 2.6773 0 4.8477 2.17042 4.8477 4.84774 0 .3758-.0428.7417-.1237 1.0929l6.5021 1.7423.6273-2.3413-7.1829-1.9247 6.5485-1.75465-.6274-2.34126-7.1827 1.92455 4.7936-4.79357-1.7139-1.71395-5.1851 5.1851z"/><path d="m16.696 13.2281c-.2008.8486-.6245 1.611-1.206 2.2218l4.7105 4.7106 1.7139-1.7139z"/><path d="m15.4424 15.4992c-.5885.6011-1.3322 1.0496-2.1662 1.2808l1.7141 6.3969 2.3413-.6273z"/><path d="m13.1888 16.8033c-.3869.0995-.7925.1524-1.2104.1524-.4478 0-.8814-.0607-1.2931-.1744l-1.71557 6.4029 2.34127.6272z"/><path d="m10.6025 16.7577c-.82126-.2426-1.55173-.6969-2.1282-1.2997l-4.7221 4.7221 1.71394 1.714z"/><path d="m8.43538 15.4163c-.56658-.6066-.9793-1.3588-1.17573-2.1944l-6.523383 1.748.627343 2.3412z"/></g></svg>