<svg viewBox="0 0 80 70" xmlns="http://www.w3.org/2000/svg"><path d="m71.09 20.74c-.16-.17-.33-.34-.5-.5s-.33-.34-.5-.5-.33-.34-.5-.5-.33-.34-.5-.5-.33-.34-.5-.5-.33-.34-.5-.5-.33-.34-.5-.5a26.46 26.46 0 0 1 7.91 18.46c0 16.57-16.82 30.05-37.5 30.05-11.58 0-21.94-4.23-28.83-10.86l.5.5.5.5.5.5.5.5.5.5.5.5.5.5c6.88 6.91 17.47 11.36 29.33 11.36 20.68 0 37.5-13.48 37.5-30 0-7.06-3.04-13.75-8.41-19.01z"/><path d="m73 35.7c0 15.21-15.67 27.54-35 27.54s-35-12.33-35-27.54c0-9.43 6-17.76 15.22-22.7s14.96-10 19.78-10 8.94 4.13 19.78 10c9.22 4.94 15.22 13.27 15.22 22.7z" fill="#fbf0df"/><path d="m73 35.7a21.67 21.67 0 0 0 -.8-5.78c-2.73 33.3-43.35 34.9-59.32 24.94a40 40 0 0 0 25.12 8.38c19.3 0 35-12.35 35-27.54z" fill="#f6dece"/><path d="m24.53 11.17c4.47-2.68 10.41-7.71 16.25-7.72a9.29 9.29 0 0 0 -2.78-.45c-2.42 0-5 1.25-8.25 3.13-1.13.66-2.3 1.39-3.54 2.15-2.33 1.44-5 3.07-8 4.7-9.52 5.15-15.21 13.64-15.21 22.72v1.19c6.06-21.41 17.07-23.04 21.53-25.72z" fill="#fffefc"/><path d="m35.12 5.53a16.41 16.41 0 0 1 -5.63 12.47c-.28.25-.06.73.3.59 3.37-1.31 7.92-5.23 6-13.14-.08-.45-.67-.33-.67.08zm2.27 0a16.24 16.24 0 0 1 1.61 13.47c-.12.35.31.65.55.36 2.19-2.8 4.1-8.36-1.62-14.36-.29-.26-.74.14-.54.49zm2.76-.17a16.42 16.42 0 0 1 6.85 11.76.33.33 0 0 0 .65.11c.92-3.49.4-9.44-7.17-12.53-.4-.16-.66.38-.33.62zm-18.46 10.4a16.94 16.94 0 0 0 10.47-9c.18-.36.75-.22.66.18-1.73 8-7.52 9.67-11.12 9.45-.38.01-.37-.52-.01-.63z" fill="#ccbea7" fill-rule="evenodd"/><path d="m38 65.75c-20.68 0-37.5-13.48-37.5-30.05 0-10 6.18-19.33 16.53-24.92 3-1.6 5.57-3.21 7.86-4.62 1.26-.78 2.45-1.51 3.6-2.19 3.51-2.08 6.51-3.47 9.51-3.47s5.62 1.2 8.9 3.14c1 .57 2 1.19 3.07 1.87 2.49 1.54 5.3 3.28 9 5.27 10.35 5.59 16.53 14.91 16.53 24.92 0 16.57-16.82 30.05-37.5 30.05zm0-62.75c-2.42 0-5 1.25-8.25 3.13-1.13.66-2.3 1.39-3.54 2.15-2.33 1.44-5 3.07-8 4.7-9.52 5.15-15.21 13.64-15.21 22.72 0 15.19 15.7 27.55 35 27.55s35-12.36 35-27.55c0-9.08-5.69-17.57-15.22-22.7-3.78-2-6.73-3.88-9.12-5.36-1.09-.67-2.09-1.29-3-1.84-3.03-1.8-5.24-2.8-7.66-2.8z"/><path d="m45.05 43a8.93 8.93 0 0 1 -2.92 4.71 6.81 6.81 0 0 1 -4 1.88 6.84 6.84 0 0 1 -4.13-1.88 8.93 8.93 0 0 1 -2.88-4.71.72.72 0 0 1 .8-.81h12.34a.72.72 0 0 1 .79.81z" fill="#b71422"/><path d="m34 47.79a6.91 6.91 0 0 0 4.12 1.9 6.91 6.91 0 0 0 4.11-1.9 10.63 10.63 0 0 0 1-1.07 6.83 6.83 0 0 0 -4.9-2.31 6.15 6.15 0 0 0 -5 2.78c.23.21.43.41.67.6z" fill="#ff6164"/><path d="m34.16 47a5.36 5.36 0 0 1 4.19-2.08 6 6 0 0 1 4 1.69c.23-.25.45-.51.66-.77a7 7 0 0 0 -4.71-1.93 6.36 6.36 0 0 0 -4.89 2.36 9.53 9.53 0 0 0 .75.73z"/><path d="m38.09 50.19a7.42 7.42 0 0 1 -4.45-2 9.52 9.52 0 0 1 -3.11-5.05 1.2 1.2 0 0 1 .26-1 1.41 1.41 0 0 1 1.13-.51h12.34a1.44 1.44 0 0 1 1.13.51 1.19 1.19 0 0 1 .25 1 9.52 9.52 0 0 1 -3.11 5.05 7.42 7.42 0 0 1 -4.44 2zm-6.17-7.4c-.16 0-.2.07-.21.09a8.29 8.29 0 0 0 2.73 4.37 6.23 6.23 0 0 0 3.65 1.75 6.28 6.28 0 0 0 3.65-1.73 8.3 8.3 0 0 0 2.72-4.37.21.21 0 0 0 -.2-.09z"/><ellipse cx="53.22" cy="40.18" fill="#febbd0" rx="5.85" ry="3.44"/><ellipse cx="22.95" cy="40.18" fill="#febbd0" rx="5.85" ry="3.44"/><g fill-rule="evenodd"><path d="m25.7 38.8a5.51 5.51 0 1 0 -5.5-5.51 5.51 5.51 0 0 0 5.5 5.51zm24.77 0a5.51 5.51 0 1 0 -5.47-5.51 5.5 5.5 0 0 0 5.47 5.51z"/><path d="m24 33.64a2.07 2.07 0 1 0 -2.06-2.07 2.07 2.07 0 0 0 2.06 2.07zm24.77 0a2.07 2.07 0 1 0 -2.06-2.07 2.07 2.07 0 0 0 2.04 2.07z" fill="#fff"/></g></svg>