<svg fill="none" height="37" viewBox="0 0 37 37" width="37" xmlns="http://www.w3.org/2000/svg" xmlns:xlink="http://www.w3.org/1999/xlink"><clipPath id="a"><path d="m.421387.578644h36v36h-36z"/></clipPath><g clip-path="url(#a)" fill="#fff"><path clip-rule="evenodd" d="m29.3714 26.576 2.8905.5561c2.8695.5523 5.0596-2.5238 3.5984-5.0542l-10.2574-17.76436c-1.4612-2.53049-5.2205-2.17211-6.1769.58887l-.9637 2.78108c.5526.40025 1.0398.9284 1.4203 1.58745l8.824 15.28176c.3805.6589.5944 1.3448.6648 2.0233zm-1.7505-.3368c-.0761-.2884-.1929-.5754-.3544-.8549l-8.824-15.282c-.1616-.27979-.3518-.5246-.5636-.73465l-1.8661 5.38635 3.4132 9.9082z" fill-rule="evenodd"/><path d="m3.39084 32.0414c-2.14532-.3377-3.4328352-2.5674-2.652727-4.594l3.795617-9.8598c1.03016-2.6765 4.70306-2.9638 6.13707-.4802l6.6424 11.5032c1.434 2.4835-.6514 5.5204-3.4846 5.0743z"/><path clip-rule="evenodd" d="m19.4258 29.8788 4.4359.5911c2.8058.3736 4.82-2.6345 3.4048-5.0856l-8.824-15.282c-1.4152-2.45092-5.0286-2.21178-6.1077.4046l-1.7061 4.1366c.5775.4049 1.0868.9478 1.482 1.6321l6.6424 11.5032c.3951.6846.6105 1.3973.6727 2.1zm-1.7148-.2283c-.0716-.3503-.2016-.7001-.3978-1.0399l-6.6424-11.5032c-.1961-.3396-.4343-.6279-.70178-.8648l-3.14941 7.636c-.85334 2.0692.48418 4.3853 2.70282 4.6809z" fill-rule="evenodd"/></g></svg>