<svg fill="none" height="209" viewBox="0 0 209 209" width="209" xmlns="http://www.w3.org/2000/svg"><path d="m104.36 208.72c57.636 0 104.36-46.724 104.36-104.36 0-57.6364-46.724-104.36-104.36-104.36-57.6364 0-104.36 46.7236-104.36 104.36 0 57.636 46.7236 104.36 104.36 104.36z" fill="#fff"/><g fill="#2c70ff"><path d="m165.95 89.06c-17.29-.82-33.49-10.36-41.03-27.09-3.33-7.39-10.72-12.29-18.82-12.51-17.17-.46-28.06 21.09-17.28 34.67 3.7 4.67 9.27 7.26 16.53 7.73v.04c14.04 1 26.15 7.07 34.15 17.12 14.69 18.48 12.55 46.37-4.47 62.56-20.53 19.52-54.76 15.53-70.41-7.94-1.39-2.09-2.61-4.29-3.64-6.57-3.33-7.39-10.72-12.29-18.82-12.5-8.39-.23-16.24 2.97-21.22 8.32 16.42 28.18 46.73 47.34 81.72 47.94 53.28.93 97.23-41.5 98.16-94.78.16-8.98-.95-17.68-3.1-25.96.45 1.72-13.4 6.53-14.94 6.98-5.56 1.6-11.26 2.25-16.84 1.98z"/><path d="m42.79 119.52c17.66.45 33.76 11.13 41.02 27.25 3.33 7.39 10.72 12.29 18.82 12.5 5.63.16 11.04-1.93 15.13-5.83 7.67-7.3 8.73-20.53 2.13-28.84-3.7-4.67-9.27-7.26-16.53-7.73v-.04c-14.04-1-26.16-7.07-34.15-17.12-17.78-22.36-10.23-55.64 14.26-69.38 7.06-3.96 15.14-6.11 23.25-5.9 17.66.45 33.76 11.13 41.02 27.25 3.33 7.39 10.72 12.29 18.82 12.51 8.41.23 16.26-2.97 21.22-8.32-16.42-28.19-46.75-47.35-81.74-47.98-53.26-.91-97.2 41.52-98.15 94.8-.16 8.98.95 17.68 3.09 25.96 8.96-6.08 20.05-9.39 31.81-9.12z"/></g></svg>