<svg fill="none" height="37" viewBox="0 0 37 37" width="37" xmlns="http://www.w3.org/2000/svg" xmlns:xlink="http://www.w3.org/1999/xlink"><clipPath id="a"><path d="m.59314.093262h36v36h-36z"/></clipPath><g clip-path="url(#a)"><path d="m24.9681 5.53076v24.75004c0 2.7693 1.9107 4.3125 3.9375 4.3125 1.875 0 3.9375-1.3125 3.9375-4.3125v-24.56254c0-2.53875-1.875-4.125-3.9375-4.125s-3.9375 1.74938-3.9375 3.9375z" fill="#f9ab00"/><g fill="#e37400"><path d="m14.6556 18.0933v12.1875c0 2.7693 1.9107 4.3125 3.9375 4.3125 1.875 0 3.9375-1.3125 3.9375-4.3125v-12c0-2.5388-1.875-4.125-3.9375-4.125s-3.9375 1.7493-3.9375 3.9375z"/><path d="m8.28064 34.5933c2.17466 0 3.93746-1.7629 3.93746-3.9375 0-2.1747-1.7628-3.9375-3.93746-3.9375-2.17462 0-3.9375 1.7628-3.9375 3.9375 0 2.1746 1.76288 3.9375 3.9375 3.9375z"/></g></g></svg>