<svg fill="none" height="58" viewBox="0 0 58 58" width="58" xmlns="http://www.w3.org/2000/svg" xmlns:xlink="http://www.w3.org/1999/xlink"><linearGradient id="a" gradientUnits="userSpaceOnUse" x1="57.9986" x2="6.99848" y1="58" y2=".00123"><stop offset="0" stop-color="#b9ffb3"/><stop offset="1" stop-color="#b9ffb3" stop-opacity="0"/></linearGradient><linearGradient id="b" gradientUnits="userSpaceOnUse" x1="57.9986" x2="23.5492" y1="58" y2="44.6006"><stop offset="0" stop-color="#1a1a1a" stop-opacity=".9"/><stop offset="1" stop-color="#1a1a1a" stop-opacity="0"/></linearGradient><g clip-rule="evenodd" fill-rule="evenodd"><path d="m0 10c0-5.52285 4.47705-10 9.99976-10h37.99914c5.5227 0 9.9997 4.47715 9.9997 10v32.3189c0 5.7137-7.2302 8.1935-10.7368 3.6825l-10.9627-14.1026v17.1012c0 4.9706-4.0293 9-8.9998 9h-17.29954c-5.52271 0-9.99976-4.4772-9.99976-10zm9.99976-2c-1.10454 0-1.99995.89543-1.99995 2v38c0 1.1046.89541 2 1.99995 2h17.59954c.5523 0 .7-.4477.7-1v-22.9327c0-5.7137 7.2302-8.1935 10.7368-3.6825l10.9627 14.1026v-26.4874c0-1.10457.1046-2-1-2z" fill="#12fff7"/><path d="m0 10c0-5.52285 4.47705-10 9.99976-10h37.99914c5.5227 0 9.9997 4.47715 9.9997 10v32.3189c0 5.7137-7.2302 8.1935-10.7368 3.6825l-10.9627-14.1026v17.1012c0 4.9706-4.0293 9-8.9998 9h-17.29954c-5.52271 0-9.99976-4.4772-9.99976-10zm9.99976-2c-1.10454 0-1.99995.89543-1.99995 2v38c0 1.1046.89541 2 1.99995 2h17.59954c.5523 0 .7-.4477.7-1v-22.9327c0-5.7137 7.2302-8.1935 10.7368-3.6825l10.9627 14.1026v-26.4874c0-1.10457.1046-2-1-2z" fill="url(#a)"/><path d="m0 10c0-5.52285 4.47705-10 9.99976-10h37.99914c5.5227 0 9.9997 4.47715 9.9997 10v32.3189c0 5.7137-7.2302 8.1935-10.7368 3.6825l-10.9627-14.1026v17.1012c0 4.9706-4.0293 9-8.9998 9h-17.29954c-5.52271 0-9.99976-4.4772-9.99976-10zm9.99976-2c-1.10454 0-1.99995.89543-1.99995 2v38c0 1.1046.89541 2 1.99995 2h17.59954c.5523 0 .7-.4477.7-1v-22.9327c0-5.7137 7.2302-8.1935 10.7368-3.6825l10.9627 14.1026v-26.4874c0-1.10457.1046-2-1-2z" fill="url(#b)"/></g><path d="m48.0003 0c5.5227 0 9.9997 4.47715 9.9997 10v32.3189c0 5.7137-7.2301 8.1935-10.7367 3.6825l-10.9627-14.1026v17.1012c0 4.9706-4.0294 9-8.9998 9 .5523 0 1-.4477 1-1v-30.9327c0-5.7137 7.2301-8.1935 10.7367-3.6825l10.9627 14.1026v-34.4874c0-1.10457-.8954-2-1.9999-2z" fill="#b9ffb3"/></svg>