<svg fill="none" height="37" viewBox="0 0 37 37" width="37" xmlns="http://www.w3.org/2000/svg" xmlns:xlink="http://www.w3.org/1999/xlink"><clipPath id="a"><path d="m.466553.62253h36v36h-36z"/></clipPath><g clip-path="url(#a)"><path d="m33.1351 27.9731-12.3459-26.21833c-.3125-.65735-.9603-1.090446-1.6871-1.128062-.7286-.048815-1.4238.311607-1.8039.935122l-13.39047 21.68807c-.4157.6686-.40696 1.5173.02243 2.1772l6.54674 10.1382c.5087.7816 1.4709 1.1355 2.3647.8696l18.9985-5.6197c.5788-.1692 1.0558-.581 1.3076-1.1289.2484-.5453.2441-1.1723-.0117-1.7141zm-2.7641 1.1245-16.1213 4.7671c-.4918.1463-.9639-.28-.8616-.7763l5.7597-27.57879c.1077-.51602.8203-.59769 1.0455-.12026l10.6624 22.64205c.0954.2042.0965.44.0031.6451s-.272.359-.4887.4211z" fill="#fff"/></g></svg>