<svg fill="none" height="37" viewBox="0 0 37 37" width="37" xmlns="http://www.w3.org/2000/svg" xmlns:xlink="http://www.w3.org/1999/xlink"><clipPath id="a"><path d="m.491577.375h36v36h-36z"/></clipPath><g clip-path="url(#a)"><path d="m17.7716 36.375c-3.0553 0-5.9855-1.2137-8.14588-3.3741-2.16042-2.1604-3.37413-5.0906-3.37413-8.1459s1.21371-5.9855 3.37413-8.1459c2.16038-2.1604 5.09058-3.3741 8.14588-3.3741zm0-36h-11.52001v11.52h11.52001zm7.2 11.52c1.5276 0 2.9927-.6069 4.0729-1.6871 1.0802-1.08017 1.6871-2.54525 1.6871-4.0729s-.6069-2.99273-1.6871-4.07293c-1.0802-1.080214-2.5453-1.68707-4.0729-1.68707-1.5277 0-2.9927.606856-4.0729 1.68707-1.0803 1.0802-1.6871 2.54528-1.6871 4.07293s.6068 2.99273 1.6871 4.0729c1.0802 1.0802 2.5452 1.6871 4.0729 1.6871z" fill="#fff"/></g></svg>