<svg fill="none" height="75" viewBox="0 0 60 75" width="60" xmlns="http://www.w3.org/2000/svg" xmlns:xlink="http://www.w3.org/1999/xlink"><linearGradient id="a" gradientUnits="userSpaceOnUse" x1="5086.03" x2="-2438.04" y1="-549.638" y2="7009.17"><stop offset="0" stop-color="#17ccfc"/><stop offset=".5" stop-color="#5d31ff"/><stop offset="1" stop-color="#f35aff"/></linearGradient><path d="m59.468 9.87701-8.961 9.00199c-.2811.2822-.6491.4615-1.0446.5091-.3955.0475-.7954-.0395-1.1354-.2471-3.5222-2.1351-7.589-3.2005-11.7056-3.0664-4.1167.134-8.1056 1.4617-11.4814 3.8214-2.08 1.4551-3.8847 3.2683-5.33 5.355-2.349 3.4013-3.6695 7.4067-3.8039 11.5381-.1345 4.1314.9229 8.2142 3.0459 11.7609.205.3413.2906.7411.2431 1.1364-.0474.3953-.2251.7636-.5051 1.0466l-8.96001 9.001c-.18026.1823-.39788.3233-.63786.4133-.23999.0901-.49664.1271-.7523.1085-.25565-.0186-.50423-.0924-.72863-.2164-.22439-.1239-.41927-.2949-.57121-.5014-4.85081-6.7024-7.355527-14.8176-7.1259985-23.088.2261655-8.2697 3.1745785-16.2337 8.3879985-22.657 1.58961-1.9616 3.37561-3.7556 5.33001-5.35399 6.3765-5.22967 14.3095-8.193155 22.553-8.4249957 8.242-.2277213 16.3262 2.2894657 22.982 7.1559957.2078.15262.3799.34853.5046.57419.1246.22566.1988.47569.2174.73281.0192.25704-.0173.5152-.107.75683-.0898.24162-.2306.46102-.413.64317z" fill="url(#a)"/><path d="m59.46 65.09-8.962-9.002c-.2812-.2821-.6492-.4613-1.0446-.5088s-.7954.0394-1.1354.2468c-3.3207 2.0134-7.1296 3.0782-11.013 3.079-3.8834-.0008-7.6923-1.0656-11.013-3.079-.3398-.2081-.7399-.2954-1.1355-.2479-.3957.0476-.7637.2272-1.0445.5099l-8.96 9.002c-.1885.1815-.3348.4023-.4285.6466-.0936.2444-.1324.5064-.1135.7674.0188.2608.0946.5143.2219.7427s.3032.4261.5151.5793c6.3712 4.6599 14.0595 7.1723 21.953 7.174 7.8931-.0019 15.5811-2.5143 21.952-7.174.2131-.1518.3902-.3487.5186-.5766.1284-.228.2051-.4815.2244-.7424.0194-.2609-.0184-.5229-.1108-.7677-.0924-.2447-.2372-.4663-.4242-.6493zm-22.136-16.896c5.887 0 10.66-4.795 10.66-10.71 0-5.914-4.773-10.708-10.66-10.708-5.888 0-10.662 4.794-10.662 10.709 0 5.914 4.774 10.709 10.662 10.709z" fill="#1f0256"/></svg>