<svg fill="none" height="21" viewBox="0 0 24 21" width="24" xmlns="http://www.w3.org/2000/svg" xmlns:xlink="http://www.w3.org/1999/xlink"><clipPath id="a"><path d="m0 0h24v21h-24z"/></clipPath><g clip-path="url(#a)"><path d="m13.601.00000016h-3.23c-5.726.007-10.366 4.63799984-10.371 10.35199984.007 5.713 4.646 10.342 10.371 10.349h3.242c5.726-.005 10.367-4.635 10.374-10.349-.006-5.72-4.654-10.35299984-10.386-10.35199984zm-12.317 10.35199984c0-5.005 4.065-9.061 9.08-9.061.507 0 1.014.041 1.514.125 4.376.722 7.58 4.505 7.564 8.931-.005 2.841-2.06 5.265-4.867 5.74 1.837-1.338 2.922-3.471 2.92-5.74.006-3.247-2.195-6.084-5.347-6.891-.583-.151-1.182-.226-1.784-.226-3.932.012-7.113 3.194-7.117 7.117-.01 3.555 1.814 6.864 4.827 8.76-3.989-1.045-6.774-4.639-6.783-8.755zm10.697-5.591c2.497.717 4.216 2.998 4.214 5.591.001 2.592-1.718 4.871-4.214 5.588-2.496-.717-4.214-2.996-4.214-5.588-.002-2.593 1.717-4.874 4.214-5.591zm1.62 14.647h-.037c-.493-.003-.986-.044-1.473-.125-4.26-.705-7.425-4.32-7.553-8.627v-.304c.003-2.842 2.059-5.267 4.866-5.741-1.837 1.338-2.923 3.471-2.923 5.741-.004 3.246 2.197 6.082 5.348 6.889.582.151 1.182.227 1.784.225 3.936-.004 7.126-3.186 7.132-7.114.011-3.555-1.813-6.865-4.828-8.76 3.989 1.047 6.77 4.644 6.771 8.76-.001 2.403-.959 4.708-2.664 6.406-1.704 1.699-4.015 2.652-6.423 2.65z" fill="#fc5200"/></g></svg>