<svg fill="none" height="15" viewBox="0 0 16 15" width="16" xmlns="http://www.w3.org/2000/svg"><path d="m.75 3.25v8c0 .5304.210714 1.0391.58579 1.4142.37507.3751.88378.5858 1.41421.5858h3.5m-5.5-10v-.5c0-.53043.210714-1.03914.58579-1.41421.37507-.375076.88378-.58579 1.41421-.58579h10.5c.5304 0 1.0391.210714 1.4142.58579.3751.37507.5858.88378.5858 1.41421v.5zm10.25 6.25v-1.071c0-.79.672-1.429 1.5-1.429s1.5.64 1.5 1.429v1.071m-4.25.25v3.5c0 .2652.10536.5196.2929.7071.1875.1875.4419.2929.7071.2929h3.5c.2652 0 .5196-.1054.7071-.2929s.2929-.4419.2929-.7071v-3.5z" stroke="#000" stroke-linecap="round" stroke-linejoin="round" stroke-width="1.5"/></svg>