<svg fill="none" height="20" viewBox="0 0 20 20" width="20" xmlns="http://www.w3.org/2000/svg"><path clip-rule="evenodd" d="m18.8311 18.8312c.7781-.778.9247-1.8304.8389-2.7393-.0869-.9206-.425-1.9202-.9051-2.9173-.4326-.8985-1.0094-1.8542-1.7075-2.8287.6981-.97454 1.2749-1.93024 1.7075-2.82874.4801-.9971.8182-1.9967.9051-2.9173.0858-.90892-.0608-1.96127-.8389-2.73928-.778-.77801-1.8303-.92468-2.7393-.83888-.9205.08689-1.9201.42502-2.9172.9051-.8986.43263-1.8543 1.00942-2.8287 1.70748-.97446-.69806-1.93016-1.27485-2.82876-1.70748-.9971-.48008-1.9967-.81821-2.9172-.9051-.909-.0858-1.96135.06087-2.73936.83888s-.92468 1.83036-.83888 2.73928c.0869.9206.42502 1.9202.9051 2.9173.43264.8985 1.00942 1.8542 1.70748 2.82874-.69806.9745-1.27484 1.9302-1.70748 2.8287-.48008.9971-.8182 1.9967-.9051 2.9173-.0858.9089.06087 1.9613.83888 2.7393s1.83036.9247 2.73936.8389c.9205-.0869 1.9201-.4251 2.9172-.9051.8986-.4327 1.8543-1.0095 2.82876-1.7075.9744.698 1.9301 1.2748 2.8287 1.7075.9971.48 1.9967.8182 2.9172.9051.909.0858 1.9613-.0609 2.7393-.8389zm-8.4852-3.5373c.8693-.6796 1.7534-1.4606 2.6204-2.3275.867-.867 1.648-1.7512 2.3276-2.6205-.6796-.86934-1.4606-1.75354-2.3276-2.62054-.867-.8669-1.7511-1.6479-2.6204-2.3275-.86936.6796-1.75346 1.4606-2.62046 2.3275-.867.867-1.648 1.7512-2.3276 2.62054.6796.8693 1.4606 1.7535 2.3276 2.6205.867.8669 1.7511 1.6479 2.62046 2.3275zm1.1792.8665c.8182-.6587 1.6387-1.395 2.4395-2.1958.8007-.8007 1.5371-1.6213 2.1958-2.4395 1.9336 2.8127 2.6776 5.3027 1.6725 6.3078-1.0052 1.0052-3.4951.2612-6.3078-1.6725zm-6.99376-4.6353c.6588.8182 1.3951 1.6388 2.1958 2.4395.8008.8008 1.6213 1.5371 2.4396 2.1958-2.8128 1.9337-5.30273 2.6777-6.30789 1.6725-1.00516-1.0051-.26117-3.4951 1.67249-6.3078zm0-2.35844c.6588-.8182 1.3951-1.6388 2.1958-2.4395.8008-.8008 1.6213-1.5371 2.4396-2.1958-2.8128-1.93368-5.30273-2.67767-6.30789-1.67251s-.26117 3.49511 1.67249 6.30781zm6.99376-4.6353c.8182.6587 1.6387 1.395 2.4395 2.1958.8007.8007 1.5371 1.6213 2.1958 2.4395 1.9336-2.8127 2.6776-5.30265 1.6725-6.30781-1.0052-1.00516-3.4951-.26117-6.3078 1.67251z" fill="#000" fill-rule="evenodd" stroke="#000" stroke-width=".5"/></svg>