<svg height="256" preserveAspectRatio="xMidYMid" viewBox="0 0 256 256" width="256" xmlns="http://www.w3.org/2000/svg"><path d="m128 0c-70.6718147 0-128 57.3281853-128 128 0 70.671815 57.3281853 128 128 128 70.671815 0 128-57.328185 128-128 0-70.6718147-57.328185-128-128-128" fill="#368fb9"/><path d="m203.317375 174.060232c-7.907336 1.877992-11.910425 3.607722-21.695753 9.983011-15.271043 9.88417-31.97529 14.480309-31.97529 14.480309s-1.383784 2.075676-5.386873 3.014672c-6.918918 1.680309-32.963706 3.113513-35.335907 3.162934-6.375289.049421-10.2795366-1.630888-11.3667952-4.250193-3.311197-7.907336 4.7444012-11.366795 4.7444012-11.366795s-1.77915-1.087259-2.8169881-2.075676c-.9389962-.938996-1.9274131-2.816988-2.2239382-2.125096-1.2355213 3.014671-1.8779923 10.378378-5.1891892 13.689575-4.5467182 4.596139-13.145946 3.064093-18.2362935.395367-5.5845559-2.965251.3953668-9.933591.3953668-9.933591s-3.0146718 1.779151-5.4362934-1.877992c-2.1745174-3.360618-4.2007722-9.093437-3.6571429-16.160618.5930502-8.055598 9.5876448-15.864093 9.5876448-15.864093s-1.5814672-11.910424 3.607722-24.117374c4.6949807-11.119691 17.3467182-20.064865 17.3467182-20.064865s-10.6254826-11.7621622-6.6718147-22.338224c2.5698842-6.9189189 3.607722-6.8694981 4.4478765-7.1660232 2.9652509-1.1366795 5.8316602-2.3722007 7.9567567-4.6949806 10.625483-11.4656371 24.166795-9.2911197 24.166795-9.2911197s6.424711-19.5212356 12.355213-15.7158302c1.828571 1.1861004 8.401544 15.8146719 8.401544 15.8146719s7.017761-4.1019305 7.808494-2.5698842c4.250193 8.2532818 4.744402 24.0185328 2.86641 33.6061776-3.162935 15.8146714-11.070271 24.3150584-14.233205 29.6525094-.741313 1.235521 8.500386 5.139769 14.332046 21.300386 5.386873 14.776834.593051 27.181468 1.433205 28.565251.148262.247105.197683.345946.197683.345946s6.177607.494209 18.58224-7.166023c6.622394-4.10193 14.480309-8.698069 23.425482-8.796911 8.648649-.148263 9.093437 9.983011 2.569885 11.564479zm11.762162-7.264865c-.889576-7.017761-6.820078-11.861004-14.430888-11.762162-11.366796.148262-20.90502 6.029343-27.230888 9.93359-2.471043 1.532047-4.596139 2.668726-6.424711 3.508881.395367-5.732819.049421-13.244788-2.91583-21.49807-3.607722-9.88417-8.450965-15.962934-11.910425-19.471814 4.003089-5.831661 9.488803-14.332047 12.058688-27.477993 2.223938-11.2185326 1.532046-28.6640924-3.558302-38.4494206-1.037837-1.976834-2.767567-3.4100386-4.942084-4.0030888-.889576-.2471043-2.569885-.7413128-5.881082.1976834-4.991505-10.3289576-6.721235-11.4162162-8.055598-12.3057915-2.767568-1.7791506-6.029344-2.1745174-9.093436-1.0378379-4.101931 1.4826255-7.610811 5.4362935-10.922008 12.4540541-.494209 1.0378378-.938996 2.0262548-1.334363 3.0146718-6.276448.4447876-16.160618 2.7181467-24.5127413 11.7621622-1.0378378 1.1366795-3.0640926 1.9768339-5.1891892 2.7675675h.0494209c-4.3490348 1.5320464-6.3258687 5.0903475-8.7474904 11.5150579-3.3606177 8.9945946.0988417 17.8409269 3.5088803 23.5737449-4.6455598 4.151352-10.823166 10.773745-14.084942 18.532819-4.0525097 9.587645-4.4972973 18.977606-4.3490348 24.067954-3.4594594 3.657142-8.7969112 10.52664-9.3899614 18.236293-.7907336 10.773745 3.1135135 18.088031 4.8432433 20.756757.4942085.790733 1.0378378 1.433204 1.630888 2.075675-.1976834 1.334363-.2471042 2.767568.0494208 4.250193.6424711 3.45946 2.8169885 6.276448 6.1281854 8.055599 6.5235521 3.459459 15.6169884 4.942085 22.634749 1.433205 2.5204633 2.668725 7.1166024 5.23861 15.4687254 5.23861h.494209c2.125096 0 29.10888-1.433205 36.966795-3.360618 3.508881-.840155 5.930502-2.32278 7.511969-3.657143 5.040927-1.581467 18.977607-6.325869 32.123553-14.826255 9.291119-6.029344 12.503474-7.314286 19.422393-8.994594 6.721236-1.630889 10.922008-7.759074 10.081854-14.52973z" fill="#fff"/></svg>