<svg fill="none" height="323" viewBox="0 0 373 323" width="373" xmlns="http://www.w3.org/2000/svg"><g fill="#000"><path clip-rule="evenodd" d="m299.955 248.639 29.948 5.762c29.732 5.723 52.424-26.149 37.284-52.367l-106.278-184.0586c-15.14-26.21871-54.09-22.50542-64 6.1014l-9.985 28.815c5.726 4.1471 10.774 9.6193 14.716 16.4478l91.427 158.3364c3.942 6.827 6.158 13.933 6.888 20.963zm-18.137-3.489c-.789-2.989-1.999-5.962-3.672-8.858l-91.427-158.339c-1.674-2.8985-3.645-5.435-5.839-7.6114l-19.335 55.8084 35.364 102.66z" fill-rule="evenodd"/><path d="m30.7672 305.267c-22.22782-3.499-35.56794-26.601-27.48515-47.599l39.32685-102.159c10.6736-27.731 48.7289-30.708 63.5871-4.975l68.822 119.186c14.858 25.732-6.749 57.197-36.104 52.575z"/><path clip-rule="evenodd" d="m196.907 282.86 45.961 6.124c29.071 3.871 49.937-27.3 35.274-52.696l-91.429-158.3389c-14.663-25.3939-52.096-22.9122-63.276 4.1961l-17.677 42.8598c5.983 4.196 11.26 9.821 15.355 16.911l68.822 119.186c4.094 7.093 6.326 14.477 6.97 21.758zm-17.767-2.366c-.742-3.629-2.093-7.257-4.126-10.778l-68.82-119.186c-2.032-3.519-4.498-6.502-7.2695-8.956l-32.6314 79.117c-8.8415 21.439 5.0167 45.437 28.0042 48.5z" fill-rule="evenodd"/></g></svg>