<svg enable-background="new 0 0 445.9 638" viewBox="0 0 445.9 638" xmlns="http://www.w3.org/2000/svg"><g fill="#5f5df9"><path d="m224.5 638c-123.4 0-224.5-100.2-224.5-223.3v-191.4c0-123.1 101.1-223.3 224.5-223.3 109.6 0 202.8 78.3 220.9 186.1 2.9 17.4-8.6 33.8-26 36.8-17.4 2.9-33.7-8.8-36.7-26.2-13-77-78.6-132.9-157-132.9-88.2 0-159.3 71.6-159.3 159.5v191.4c0 88 71.1 159.5 159.3 159.5 78.3 0 144.2-55.9 157.1-132.9 2.9-17.4 19.3-29.1 36.6-26.2 17.4 2.9 28.6 19.4 25.7 36.7-17.9 107.9-111.1 186.2-220.6 186.2z"/><path d="m153.6 347.7c-17.6 0-30.7-14.3-30.7-31.9v-92.3c0-56.8 45.8-103 102.8-103 38.9 0 73.9 21.6 91.7 56.4 8 15.7 1.7 34.9-14 42.9s-35 1.8-43-13.9c-6.8-13.4-21-21.7-35.8-21.7-21.8 0-40.2 17.6-40.2 39.2v92.3c-.1 17.7-13.2 32-30.8 32z" opacity=".5"/></g></svg>