<svg fill="none" height="24" viewBox="0 0 22 24" width="22" xmlns="http://www.w3.org/2000/svg"><path clip-rule="evenodd" d="m10.43.92268c.7126-.524565 1.6877-.515189 2.39.022985l7.1728 5.496315c1.0338.79221 1.0338 2.34573 0 3.13794l-2.7355 2.09618 2.7806 2.2276c1.0114.8102.9841 2.3537-.0553 3.1278l-7.3626 5.4838c-.7566.5635-1.8066.5179-2.5111-.109l-5.76101-5.1261-.80565-.6899c-3.5952512-3.0789-3.152057-8.74936.8705-11.23818zm5.7655 9.90272-3.344-2.67881c-.714-.57202-1.728-.58294-2.4543-.02642l-2.47422 1.89593c-1.03385.7923-1.03385 2.3458 0 3.138l2.49242 1.9099c.7136.5468 1.707.5468 2.4206 0l3.3413-2.5604 3.0313 2.4284c.3371.2701.328.7846-.0185 1.0427l-7.3626 5.4838c-.2522.1878-.6022.1726-.837-.0364l-5.7657-5.1303-.81985-.7023c-2.9224-2.5026-2.55554-7.11612.72593-9.12872l.02383-.01461 6.06179-4.46219c.2375-.17485.5625-.17173.7967.00766l7.1727 5.49632c.3446.26407.3446.78191 0 1.04598zm-1.08.8276-3.0864 2.365c-.2378.1823-.569.1823-.8068 0l-2.49246-1.9099c-.34461-.2641-.34461-.7819 0-1.046l2.47426-1.89595c.2421-.1855.5801-.18186.8181.00881z" fill="#7c3aed" fill-rule="evenodd" stroke="#7c3aed" stroke-width=".5"/></svg>