<svg preserveAspectRatio="xMidYMid meet" transform="translate3d(0px, 0px, 0px)" viewBox="0 0 35 35" xmlns="http://www.w3.org/2000/svg" xmlns:xlink="http://www.w3.org/1999/xlink"><clipPath id="a"><path d="m0 0h35v35h-35z"/></clipPath><mask id="b"><path d="m0 0h35v35h-35zm29.06200027-3h-14.30900001v32.81699944h14.30900001z" fill="#fff"/></mask><g clip-path="url(#a)"><g display="block" mask="url(#b)" transform="translate(1.25 5.75)"><path d="m-11.75 11.5s14.5-23 14.5-23h9v3.19999981s-12.5 19.80000019-12.5 19.80000019" fill="#fbbc04" transform="translate(12 11.75)"/></g><path d="m4.5 11.5h-9v-23h9z" display="block" fill="#1a73e8" transform="translate(20.5 17.5)"/><path d="m3.25 0c0 3.58999991-2.91 6.5-6.5 6.5v-13c3.59 0 6.5 2.91000009 6.5 6.5z" display="block" fill="#34a853" transform="translate(28.25 22.5)"/><path d="m3.25 6.5c-3.59 0-6.5-2.91000009-6.5-6.5s2.91-6.5 6.5-6.5z" display="block" fill="#0d652d" transform="translate(21.75 22.5)"/><path d="m2.5 0c0 2.76099992-2.23800001 5-5 5v-10c2.76199999 0 5 2.23900008 5 5z" display="block" fill="#1a73e8" transform="translate(27.5 11)"/><path d="m2.5 5c-2.76199999 0-5-2.23900008-5-5s2.23800001-5 5-5z" display="block" fill="#174ea6" transform="translate(22.5 11)"/><path d="m-4.5 0c0-2.4849999 2.0150001-4.5 4.5-4.5s4.5 2.0150001 4.5 4.5-2.0150001 4.5-4.5 4.5-4.5-2.0150001-4.5-4.5z" display="block" fill="#ea4335" transform="translate(6.5 10.5)"/></g></svg>