<svg fill="none" height="16" viewBox="0 0 16 16" width="16" xmlns="http://www.w3.org/2000/svg" xmlns:xlink="http://www.w3.org/1999/xlink"><clipPath id="a"><path d="m0 0h16v16h-16z"/></clipPath><g clip-path="url(#a)"><path clip-rule="evenodd" d="m2.56 8.05132c0-2.58 1.77321-4.74316 4.16-5.32247v-2.626311c-3.80982.616584-6.72 3.940631-6.72 7.948781 0 4.00808 2.91018 7.33218 6.72 7.94868v-2.6263c-2.38679-.5793-4.16-2.7425-4.16-5.32238zm13.44 0c0 4.00808-2.9102 7.33218-6.72 7.94868v-2.6263c2.3868-.5793 4.16-2.7425 4.16-5.32238 0-2.58-1.7732-4.74316-4.16-5.32247v-2.626311c3.8098.616584 6.72 3.940631 6.72 7.948781z" fill="#000" fill-rule="evenodd"/></g></svg>