<svg fill="none" height="112" viewBox="0 0 144 112" width="144" xmlns="http://www.w3.org/2000/svg"><g fill="#000"><path d="m9.89631 38v-21.8182h8.60799c1.6477 0 3.0539.2948 4.2187.8843 1.1719.5823 2.0632 1.4098 2.674 2.4822.6179 1.0653.9269 2.3189.9269 3.7606 0 1.4489-.3125 2.6954-.9375 3.7394-.625 1.0369-1.5306 1.8324-2.7167 2.3864-1.1789.5539-2.6065.8309-4.2826.8309h-5.7635v-3.7074h5.0177c.8807 0 1.6123-.1207 2.1946-.3622.5824-.2415 1.0157-.6037 1.2998-1.0866.2911-.483.4367-1.0831.4367-1.8005 0-.7244-.1456-1.3352-.4367-1.8323-.2841-.4972-.7209-.8736-1.3104-1.1293-.5824-.2628-1.3175-.3942-2.2053-.3942h-3.1108v18.0469zm11.78269-9.929 5.4226 9.929h-5.0924l-5.3054-9.929zm14.7133 10.2486c-1.6832 0-3.1321-.3409-4.3466-1.0227-1.2074-.6889-2.1378-1.662-2.7912-2.9191-.6534-1.2642-.9801-2.7592-.9801-4.485 0-1.6833.3267-3.1606.9801-4.4319s1.5732-2.262 2.7592-2.9723c1.1932-.7102 2.5924-1.0653 4.1975-1.0653 1.0795 0 2.0845.174 3.0149.522.9375.3409 1.7543.8558 2.4503 1.5448.7031.6889 1.25 1.5554 1.6406 2.5994.3906 1.0369.5859 2.2514.5859 3.6435v1.2464h-13.8174v-2.8125h9.5454c0-.6534-.142-1.2322-.4261-1.7365s-.6783-.8984-1.1825-1.1825c-.4972-.2912-1.076-.4368-1.7365-.4368-.689 0-1.2998.1598-1.8324.4794-.5256.3125-.9375.7351-1.2358 1.2677-.2983.5256-.451 1.1115-.4581 1.7579v2.674c0 .8096.1491 1.5092.4474 2.0987.3054.5895.7351 1.044 1.2891 1.3636s1.2109.4794 1.9709.4794c.5042 0 .9659-.071 1.3849-.213.419-.1421.7777-.3552 1.076-.6393.2983-.284.5256-.6321.6818-1.044l4.1975.277c-.2131 1.0085-.6499 1.8892-1.3104 2.642-.6534.7458-1.4986 1.3282-2.5355 1.7472-1.0298.4119-2.2195.6179-3.5689.6179zm14.8385-.0107c-1.044 0-1.9744-.1811-2.7912-.5433-.8168-.3693-1.4631-.9126-1.9389-1.6299-.4688-.7245-.7031-1.6265-.7031-2.706 0-.9091.1669-1.6726.5007-2.2905s.7883-1.1151 1.3636-1.4915 1.2287-.6605 1.9602-.8522c.7387-.1918 1.5128-.3267 2.3225-.4049.9517-.0994 1.7187-.1917 2.3011-.277.5824-.0923 1.005-.2272 1.2678-.4048.2627-.1776.3941-.4403.3941-.7883v-.064c0-.6747-.213-1.1967-.6392-1.566-.419-.3693-1.0156-.554-1.7897-.554-.8168 0-1.4667.1811-1.9496.5433-.483.3551-.8026.8026-.9588 1.3424l-4.1975-.341c.2131-.9943.6321-1.8536 1.2571-2.5781.625-.7315 1.4311-1.2926 2.4184-1.6832.9943-.3977 2.1448-.5966 3.4517-.5966.9091 0 1.7791.1065 2.6101.3196.838.2131 1.5802.5433 2.2265.9908.6534.4474 1.1683 1.0227 1.5448 1.7258.3764.696.5646 1.5306.5646 2.5036v11.0369h-4.304v-2.2692h-.1278c-.2628.5114-.6144.9624-1.0547 1.353-.4404.3835-.9695.6854-1.5874.9055-.6179.2131-1.3317.3196-2.1413.3196zm1.2997-3.1321c.6676 0 1.2571-.1313 1.7685-.3941.5113-.2699.9126-.6321 1.2038-1.0867.2912-.4545.4368-.9694.4368-1.5447v-1.7365c-.142.0923-.3374.1775-.5859.2557-.2415.071-.515.1384-.8204.2024-.3054.0568-.6107.1101-.9161.1598-.3054.0426-.5824.0816-.831.1172-.5327.0781-.9979.2024-1.3956.3728-.3977.1705-.7067.4013-.9269.6925-.2201.2841-.3302.6392-.3302 1.0653 0 .6179.2237 1.0902.6712 1.4169.4545.3196 1.0298.4794 1.7258.4794zm18.5299 3.1428c-1.6761 0-3.1179-.3551-4.3253-1.0653-1.2003-.7174-2.1236-1.7117-2.7699-2.983-.6392-1.2713-.9588-2.7344-.9588-4.3892 0-1.6761.3232-3.1463.9695-4.4105.6534-1.2713 1.5802-2.2621 2.7805-2.9723 1.2003-.7173 2.6279-1.076 4.2827-1.076 1.4276 0 2.6776.2592 3.75.7777s1.9212 1.2464 2.5462 2.1839.9694 2.0384 1.0333 3.3026h-4.2826c-.1208-.8168-.4404-1.4737-.9588-1.9709-.5114-.5042-1.1826-.7564-2.0135-.7564-.7032 0-1.3175.1918-1.8431.5753-.5184.3764-.9233.9269-1.2145 1.6513s-.4367 1.6016-.4367 2.6314c0 1.044.142 1.9318.4261 2.6633.2912.7316.6996 1.2891 1.2251 1.6726.5256.3835 1.1399.5753 1.8431.5753.5184 0 .9836-.1065 1.3956-.3196.419-.2131.7635-.522 1.0333-.9268.277-.412.4581-.9056.5434-1.4809h4.2826c-.071 1.25-.4119 2.3509-1.0227 3.3026-.6037.9446-1.4382 1.6832-2.5035 2.2159-1.0654.5327-2.326.799-3.782.799zm18.6178-16.6832v3.4091h-9.8544v-3.4091zm-7.6172-3.9205h4.5384v15.2557c0 .419.0639.7457.1917.9801.1279.2273.3054.3871.5327.4794.2344.0923.5043.1385.8097.1385.213 0 .4261-.0178.6392-.0533.213-.0426.3764-.0745.49-.0958l.7138 3.3771c-.2273.071-.5469.1527-.9588.245-.4119.0994-.9127.1598-1.5021.1811-1.0938.0426-2.0526-.103-2.8765-.4368-.8167-.3338-1.4524-.8522-1.9069-1.5554-.4546-.7031-.6783-1.5909-.6712-2.6633z"/><path d="m14.8075 67-6.24287-21.8182h5.03907l3.6115 15.1598h.1811l3.9844-15.1598h4.3146l3.9737 15.1918h.1918l3.6115-15.1918h5.0391l-6.2429 21.8182h-4.4958l-4.1548-14.2649h-.1705l-4.1441 14.2649zm24.7622 0v-16.3636h4.3998v2.8551h.1705c.2983-1.0156.799-1.7827 1.5021-2.3012.7031-.5255 1.5128-.7883 2.429-.7883.2273 0 .4723.0142.7351.0426s.4936.0675.6925.1172v4.027c-.2131-.0639-.5079-.1208-.8843-.1705s-.7209-.0745-1.0334-.0745c-.6676 0-1.2642.1455-1.7897.4367-.5185.2841-.9304.6819-1.2358 1.1932-.2983.5114-.4475 1.1009-.4475 1.7685v9.2578zm16.1728.3089c-1.044 0-1.9744-.1811-2.7912-.5433-.8167-.3693-1.4631-.9126-1.9389-1.6299-.4688-.7245-.7031-1.6265-.7031-2.706 0-.9091.1669-1.6726.5007-2.2905s.7883-1.1151 1.3636-1.4915 1.2287-.6605 1.9602-.8522c.7387-.1918 1.5128-.3267 2.3225-.4049.9517-.0994 1.7187-.1917 2.3011-.277.5824-.0923 1.005-.2272 1.2678-.4048s.3942-.4403.3942-.7883v-.064c0-.6747-.2131-1.1967-.6392-1.566-.4191-.3693-1.0157-.554-1.7898-.554-.8168 0-1.4666.1811-1.9496.5433-.483.3551-.8026.8026-.9588 1.3424l-4.1974-.341c.213-.9943.6321-1.8536 1.2571-2.5781.625-.7315 1.4311-1.2926 2.4183-1.6832.9943-.3977 2.1449-.5966 3.4517-.5966.9091 0 1.7791.1065 2.6101.3196.838.2131 1.5802.5433 2.2265.9908.6534.4474 1.1684 1.0227 1.5448 1.7258.3764.696.5646 1.5306.5646 2.5036v11.0369h-4.304v-2.2692h-.1278c-.2628.5114-.6144.9624-1.0547 1.353-.4403.3835-.9695.6854-1.5874.9055-.6179.2131-1.3316.3196-2.1413.3196zm1.2997-3.1321c.6676 0 1.2571-.1313 1.7685-.3941.5114-.2699.9126-.6321 1.2038-1.0867.2912-.4545.4368-.9694.4368-1.5447v-1.7365c-.142.0923-.3373.1775-.5859.2557-.2415.071-.5149.1384-.8203.2024-.3054.0568-.6108.1101-.9162.1598-.3054.0426-.5824.0816-.831.1172-.5327.0781-.9979.2024-1.3956.3728-.3977.1705-.7067.4013-.9268.6925-.2202.2841-.3303.6392-.3303 1.0653 0 .6179.2237 1.0902.6712 1.4169.4545.3196 1.0298.4794 1.7258.4794zm11.1365 8.9596v-22.5h4.4744v2.7485h.2024c.1989-.4403.4865-.8877.8629-1.3423.3836-.4616.8807-.8452 1.4915-1.1506.6179-.3125 1.3849-.4687 2.3011-.4687 1.1932 0 2.2941.3125 3.3026.9375 1.0085.6179 1.8146 1.5518 2.4183 2.8018.6037 1.2429.9056 2.8019.9056 4.6769 0 1.8253-.2948 3.3665-.8843 4.6236-.5824 1.25-1.3778 2.1981-2.3863 2.8444-1.0015.6392-2.1236.9588-3.3665.9588-.8807 0-1.63-.1456-2.2479-.4368-.6108-.2911-1.1115-.6569-1.5021-1.0973-.3906-.4474-.6889-.8984-.8949-1.3529h-.1385v8.7571zm4.4424-14.3182c0 .973.135 1.8217.4049 2.5461.2698.7245.6605 1.2891 1.1718 1.6939.5114.3978 1.1328.5966 1.8644.5966.7386 0 1.3636-.2024 1.875-.6072.5113-.4119.8984-.9801 1.1612-1.7046.2699-.7315.4048-1.5731.4048-2.5248 0-.9446-.1314-1.7756-.3941-2.4929-.2628-.7173-.6499-1.2784-1.1613-1.6833-.5113-.4048-1.1399-.6072-1.8856-.6072-.7387 0-1.3637.1953-1.875.5859-.5043.3907-.8914.9446-1.1612 1.662-.2699.7173-.4049 1.5625-.4049 2.5355z"/><path d="m9.89631 96v-21.8182h8.73579c1.6051 0 2.9439.2379 4.0163.7138 1.0725.4758 1.8786 1.1364 2.4184 1.9815.5397.8381.8096 1.804.8096 2.8978 0 .8522-.1704 1.6015-.5113 2.2478-.341.6392-.8097 1.1648-1.4063 1.5767-.5895.4049-1.2642.6925-2.0241.863v.213c.8309.0355 1.6086.2699 2.3331.7032.7315.4332 1.3245 1.0404 1.7791 1.8217.4545.7741.6818 1.6974.6818 2.7699 0 1.1576-.2876 2.191-.8629 3.1001-.5682.902-1.4098 1.6158-2.5249 2.1413-1.115.5256-2.4893.7884-4.1229.7884zm4.61289-3.7713h3.7607c1.2855 0 2.223-.245 2.8125-.7351.5895-.4972.8842-1.1577.8842-1.9815 0-.6037-.1456-1.1364-.4368-1.598-.2912-.4617-.7066-.8239-1.2464-1.0867-.5327-.2628-1.1683-.3942-1.907-.3942h-3.8672zm0-8.9169h3.4198c.6321 0 1.1932-.1101 1.6832-.3303.4972-.2272.8878-.5468 1.1719-.9588.2912-.4119.4368-.9055.4368-1.4808 0-.7883-.2806-1.424-.8416-1.907-.554-.4829-1.3424-.7244-2.3651-.7244h-3.505zm19.5021 12.9971c-1.0441 0-1.9745-.1811-2.7912-.5433-.8168-.3693-1.4631-.9126-1.939-1.6299-.4687-.7245-.7031-1.6265-.7031-2.706 0-.9091.1669-1.6726.5007-2.2905s.7884-1.1151 1.3637-1.4915 1.2287-.6605 1.9602-.8522c.7386-.1918 1.5128-.3267 2.3224-.4049.9517-.0994 1.7188-.1917 2.3012-.277.5824-.0923 1.0049-.2272 1.2677-.4048s.3942-.4403.3942-.7883v-.064c0-.6747-.2131-1.1967-.6392-1.566-.419-.3693-1.0156-.554-1.7898-.554-.8167 0-1.4666.1811-1.9495.5433-.483.3551-.8026.8026-.9589 1.3424l-4.1974-.341c.2131-.9943.6321-1.8536 1.2571-2.5781.625-.7315 1.4311-1.2926 2.4183-1.6832.9943-.3977 2.1449-.5966 3.4517-.5966.9091 0 1.7792.1065 2.6101.3196.8381.2131 1.5803.5433 2.2266.9908.6534.4474 1.1683 1.0227 1.5447 1.7258.3764.696.5647 1.5306.5647 2.5036v11.0369h-4.304v-2.2692h-.1279c-.2627.5114-.6143.9624-1.0546 1.353-.4404.3835-.9695.6854-1.5874.9055-.6179.2131-1.3317.3196-2.1413.3196zm1.2997-3.1321c.6676 0 1.2571-.1313 1.7684-.3941.5114-.2699.9127-.6321 1.2039-1.0867.2912-.4545.4368-.9694.4368-1.5447v-1.7365c-.1421.0923-.3374.1775-.586.2557-.2414.071-.5149.1384-.8203.2024-.3054.0568-.6108.1101-.9162.1598-.3054.0426-.5824.0816-.8309.1172-.5327.0781-.9979.2024-1.3956.3728-.3978.1705-.7067.4013-.9269.6925-.2202.2841-.3302.6392-.3302 1.0653 0 .6179.2237 1.0902.6711 1.4169.4546.3196 1.0299.4794 1.7259.4794zm15.6748-18.995v21.8182h-4.5384v-21.8182zm8.0016 22.1271c-1.044 0-1.9744-.1811-2.7912-.5433-.8167-.3693-1.463-.9126-1.9389-1.6299-.4687-.7245-.7031-1.6265-.7031-2.706 0-.9091.1669-1.6726.5007-2.2905s.7884-1.1151 1.3636-1.4915c.5753-.3764 1.2287-.6605 1.9603-.8522.7386-.1918 1.5127-.3267 2.3224-.4049.9517-.0994 1.7188-.1917 2.3011-.277.5824-.0923 1.005-.2272 1.2678-.4048s.3942-.4403.3942-.7883v-.064c0-.6747-.2131-1.1967-.6392-1.566-.4191-.3693-1.0157-.554-1.7898-.554-.8168 0-1.4666.1811-1.9496.5433-.4829.3551-.8025.8026-.9588 1.3424l-4.1974-.341c.213-.9943.6321-1.8536 1.2571-2.5781.625-.7315 1.4311-1.2926 2.4183-1.6832.9943-.3977 2.1449-.5966 3.4517-.5966.9091 0 1.7791.1065 2.6101.3196.8381.2131 1.5802.5433 2.2266.9908.6534.4474 1.1683 1.0227 1.5447 1.7258.3764.696.5646 1.5306.5646 2.5036v11.0369h-4.304v-2.2692h-.1278c-.2628.5114-.6143.9624-1.0547 1.353-.4403.3835-.9694.6854-1.5873.9055-.6179.2131-1.3317.3196-2.1414.3196zm1.2997-3.1321c.6677 0 1.2571-.1313 1.7685-.3941.5114-.2699.9127-.6321 1.2038-1.0867.2912-.4545.4368-.9694.4368-1.5447v-1.7365c-.142.0923-.3373.1775-.5859.2557-.2415.071-.5149.1384-.8203.2024-.3054.0568-.6108.1101-.9162.1598-.3054.0426-.5824.0816-.831.1172-.5326.0781-.9978.2024-1.3956.3728-.3977.1705-.7066.4013-.9268.6925-.2202.2841-.3303.6392-.3303 1.0653 0 .6179.2237 1.0902.6712 1.4169.4545.3196 1.0298.4794 1.7258.4794zm15.6748-6.637v9.4602h-4.5383v-16.3636h4.3253v2.887h.1917c.3622-.9517.9695-1.7045 1.8218-2.2585.8522-.5611 1.8856-.8416 3.1001-.8416 1.1364 0 2.1271.2486 2.9723.7457.8452.4972 1.5021 1.2074 1.9709 2.1307.4687.9162.7031 2.01.7031 3.2813v10.419h-4.5383v-9.6094c.0071-1.0014-.2486-1.7826-.7671-2.3437-.5185-.5682-1.2322-.8523-2.1413-.8523-.6108 0-1.1506.1314-1.6193.3942-.4617.2628-.8239.6463-1.0867 1.1505-.2557.4972-.3871 1.0973-.3942 1.8005zm21.2173 9.7798c-1.6762 0-3.1179-.3551-4.3253-1.0653-1.2003-.7174-2.1236-1.7117-2.7699-2.983-.6392-1.2713-.9588-2.7344-.9588-4.3892 0-1.6761.3231-3.1463.9694-4.4105.6534-1.2713 1.5803-2.2621 2.7806-2.9723 1.2003-.7173 2.6278-1.076 4.2826-1.076 1.4276 0 2.6776.2592 3.7502.7777 1.072.5185 1.921 1.2464 2.546 2.1839s.969 2.0384 1.033 3.3026h-4.282c-.121-.8168-.4406-1.4737-.9591-1.9709-.5113-.5042-1.1825-.7564-2.0135-.7564-.7031 0-1.3174.1918-1.843.5753-.5185.3764-.9233.9269-1.2145 1.6513s-.4368 1.6016-.4368 2.6314c0 1.044.142 1.9318.4261 2.6633.2912.7316.6996 1.2891 1.2252 1.6726s1.1399.5753 1.843.5753c.5185 0 .9837-.1065 1.3956-.3196.4191-.2131.7635-.522 1.0334-.9268.277-.412.4576-.9056.5436-1.4809h4.282c-.071 1.25-.412 2.3509-1.022 3.3026-.604.9446-1.439 1.6832-2.504 2.2159-1.0652.5327-2.3259.799-3.7818.799zm17.3708 0c-1.683 0-3.132-.3409-4.346-1.0227-1.207-.6889-2.138-1.662-2.791-2.9191-.654-1.2642-.98-2.7592-.98-4.485 0-1.6833.326-3.1606.98-4.4319.653-1.2713 1.573-2.262 2.759-2.9723 1.193-.7102 2.592-1.0653 4.197-1.0653 1.08 0 2.085.174 3.015.522.938.3409 1.755.8558 2.451 1.5448.703.6889 1.25 1.5554 1.64 2.5994.391 1.0369.586 2.2514.586 3.6435v1.2464h-13.817v-2.8125h9.545c0-.6534-.142-1.2322-.426-1.7365s-.678-.8984-1.183-1.1825c-.497-.2912-1.076-.4368-1.736-.4368-.689 0-1.3.1598-1.832.4794-.526.3125-.938.7351-1.236 1.2677-.299.5256-.451 1.1115-.458 1.7579v2.674c0 .8096.149 1.5092.447 2.0987.306.5895.735 1.044 1.289 1.3636s1.211.4794 1.971.4794c.504 0 .966-.071 1.385-.213.419-.1421.778-.3552 1.076-.6393.298-.284.526-.6321.682-1.044l4.197.277c-.213 1.0085-.65 1.8892-1.31 2.642-.654.7458-1.499 1.3282-2.536 1.7472-1.029.4119-2.219.6179-3.569.6179zm10.173-.3196v-16.3636h4.4v2.8551h.17c.298-1.0156.799-1.7827 1.502-2.3012.703-.5255 1.513-.7883 2.429-.7883.227 0 .473.0142.735.0426.263.0284.494.0675.693.1172v4.027c-.213-.0639-.508-.1208-.884-.1705-.377-.0497-.721-.0745-1.034-.0745-.667 0-1.264.1455-1.79.4367-.518.2841-.93.6819-1.235 1.1932-.299.5114-.448 1.1009-.448 1.7685v9.2578z"/></g><rect height="107" rx="4.5" stroke="#000" stroke-width="5" width="139" x="2.5" y="2.5"/></svg>