<svg fill="none" height="300" viewBox="0 0 1438 300" width="1438" xmlns="http://www.w3.org/2000/svg"><path d="m.40918 296.747h63.52312v-99.519h53.3597l49.971 99.519h70.299l-58.441-114.341c30.914-14.822 50.818-45.313 50.818-83.427 0-60.135-43.619-98.672497-108.836-98.672497h-120.69382zm115.61182-243.505c30.068 0 49.125 17.787 49.125 45.737 0 27.527-19.057 45.313-49.125 45.313h-52.0887v-91.05zm247.839 246.046c58.018 0 95.708-33.879 102.484-76.227h-58.865c-5.081 20.327-22.021 30.914-46.16 30.914-30.067 0-49.971-18.633-51.242-49.548v-2.964h157.961c1.27-6.776 1.694-13.975 1.694-20.328-.847-63.946-44.89-104.601-110.107-104.601-67.334 0-111.8 44.043-111.8 111.801 0 67.334 43.619 110.953 116.035 110.953zm-52.512-136.786c3.388-25.833 22.868-41.502 48.701-41.502 27.103 0 45.313 14.822 49.548 41.502zm179.198 61.829c2.541 46.584 43.619 74.957 104.177 74.957 58.442 0 99.096-27.526 99.096-70.722 0-49.125-41.501-60.559-91.473-65.641-31.338-3.811-49.971-5.505-49.971-22.021 0-13.975 15.245-22.445 38.537-22.445 24.139 0 40.655 10.587 42.349 27.95h57.17c-2.964-44.466-43.195-70.298-101.636-70.298-55.901-.424-93.591 27.95-93.591 71.145 0 44.89 39.384 56.324 90.203 62.253 35.149 4.658 49.971 5.929 49.971 23.715 0 15.246-15.245 23.292-40.231 23.292-29.221 0-45.737-13.128-47.854-32.185zm342.293 74.957c58.018 0 95.708-33.879 102.484-76.227h-58.865c-5.082 20.327-22.021 30.914-46.16 30.914-30.068 0-49.972-18.633-51.242-49.548v-2.964h157.961c1.27-6.776 1.694-13.975 1.694-20.328-.847-63.946-44.89-104.601-110.107-104.601-67.334 0-111.801 44.043-111.801 111.801 0 67.334 43.62 110.953 116.036 110.953zm-52.513-136.786c3.388-25.833 22.869-41.502 48.701-41.502 27.104 0 45.314 14.822 49.548 41.502zm315.944-85.968c-33.45 0-53.36 12.705-67.33 29.644l-5.51-27.103h-52.088v217.672h59.708v-111.377c0-37.69 17.79-59.711 48.7-59.711 30.07 0 44.05 19.48 44.05 56.323v114.765h59.71v-120.693c0-74.534-40.23-99.52-87.24-99.52zm282 29.644c-13.98-17.786-35.58-29.644-65.64-29.644-58.02 0-100.79 43.619-100.79 110.954 0 69.028 42.77 111.8 101.21 111.8 31.34 0 52.51-13.975 66.91-32.608l5.93 30.067h52.09v-296.440497h-59.71zm-52.09 144.409c-32.61 0-53.36-25.409-53.36-62.676s20.75-62.676 53.36-62.676 52.93 25.833 52.93 63.1c0 36.843-20.32 62.252-52.93 62.252z" fill="#000"/></svg>