<svg fill="none" height="120" viewBox="0 0 120 120" width="120" xmlns="http://www.w3.org/2000/svg"><path d="m78.06 50.045c11.824 3.022 21.598 5.444 41.94 9.955-20.342 4.511-30.116 6.933-41.94 9.955-3.979 1.016-7.089 4.126-8.106 8.105-3.021 11.821-5.443 21.599-9.954 41.94-4.511-20.341-6.933-30.119-9.954-41.94-1.017-3.979-4.127-7.089-8.106-8.105-11.824-3.022-21.598-5.444-41.94-9.955 20.342-4.511 30.116-6.933 41.94-9.955 3.979-1.016 7.089-4.126 8.106-8.105 3.021-11.821 5.443-21.599 9.954-41.94 4.511 20.341 6.933 30.119 9.954 41.94 1.017 3.979 4.127 7.089 8.106 8.105z" fill="#fff"/></svg>