<svg width="16" height="22" viewBox="0 0 16 22" fill="none" xmlns="http://www.w3.org/2000/svg">
<mask id="mask0_21_21" style="mask-type:luminance" maskUnits="userSpaceOnUse" x="0" y="0" width="16" height="22">
<path d="M12.587 0.847656H3.26087C1.45994 0.847656 0 2.3076 0 4.10853V18.065C0 19.866 1.45994 21.3259 3.26087 21.3259H12.587C14.3879 21.3259 15.8479 19.866 15.8479 18.065V4.10853C15.8479 2.3076 14.3879 0.847656 12.587 0.847656Z" fill="white"/>
</mask>
<g mask="url(#mask0_21_21)">
<path d="M12.587 0.847656H3.26087C1.45994 0.847656 0 2.3076 0 4.10853V18.065C0 19.866 1.45994 21.3259 3.26087 21.3259H12.587C14.3879 21.3259 15.8479 19.866 15.8479 18.065V4.10853C15.8479 2.3076 14.3879 0.847656 12.587 0.847656Z" fill="#040404"/>
<path d="M27.5709 4.08165L5.61685 26.0356L6.78463 27.2034L28.7387 5.24941L27.5709 4.08165Z" fill="#FF6C02" fill-opacity="0.6"/>
<path opacity="0.5" d="M27.5709 1.77012L5.61685 23.7241L6.78463 24.8919L28.7387 2.93789L27.5709 1.77012Z" fill="#FF6C02"/>
<path opacity="0.4" d="M25.2578 1.77012L3.30367 23.7241L4.47144 24.8919L26.4255 2.93789L25.2578 1.77012Z" fill="#FF6C02"/>
<path opacity="0.35" d="M22.9453 1.77012L0.991165 23.7241L2.15894 24.8919L24.113 2.93789L22.9453 1.77012Z" fill="#FF6C02"/>
<path opacity="0.3" d="M22.2849 0.118267L0.330849 22.0723L1.49862 23.24L23.4527 1.28604L22.2849 0.118267Z" fill="#FF6C02"/>
<path opacity="0.25" d="M21.9548 -1.86318L0.000686646 20.0908L1.16846 21.2586L23.1226 -0.69541L21.9548 -1.86318Z" fill="#FF6C02"/>
<path opacity="0.2" d="M20.9636 -3.18447L-0.990486 18.7695L0.177287 19.9373L22.1314 -2.0167L20.9636 -3.18447Z" fill="#FF6C02"/>
<path opacity="0.15" d="M18.6518 -3.18447L-3.30231 18.7695L-2.13453 19.9373L19.8196 -2.0167L18.6518 -3.18447Z" fill="#FF6C02"/>
<path opacity="0.1" d="M16.3393 -3.18447L-5.61481 18.7695L-4.44703 19.9373L17.5071 -2.0167L16.3393 -3.18447Z" fill="#FF6C02"/>
</g>
<path fill-rule="evenodd" clip-rule="evenodd" d="M3.26087 1.83854C2.00719 1.83854 0.990887 2.85485 0.990887 4.10853V18.065C0.990887 19.3187 2.00719 20.335 3.26087 20.335H12.587C13.8407 20.335 14.857 19.3187 14.857 18.065V4.10853C14.857 2.85485 13.8407 1.83854 12.587 1.83854H3.26087ZM0 4.10853C0 2.3076 1.45994 0.847656 3.26087 0.847656H12.587C14.3879 0.847656 15.8479 2.3076 15.8479 4.10853V18.065C15.8479 19.866 14.3879 21.3259 12.587 21.3259H3.26087C1.45994 21.3259 0 19.866 0 18.065V4.10853Z" fill="#FF6C02"/>
</svg>
