<svg fill="none" height="37" viewBox="0 0 37 37" width="37" xmlns="http://www.w3.org/2000/svg" xmlns:xlink="http://www.w3.org/1999/xlink"><clipPath id="a"><path d="m.817322.855682h36v36h-36z"/></clipPath><g clip-path="url(#a)"><path clip-rule="evenodd" d="m18.8173 7.85568c-4.8 0-7.8 2.40002-8.99998 7.20002 1.79998-2.4 3.89998-3.3 6.29998-2.7 1.3694.342 2.348 1.336 3.4314 2.4353 1.7646 1.7913 3.8073 3.8647 8.2686 3.8647 4.8 0 7.8-2.4 9-7.2-1.8 2.4-3.9 3.3-6.3 2.7-1.3693-.342-2.348-1.336-3.4313-2.4354-1.7647-1.79128-3.8073-3.86462-8.2687-3.86462zm-8.99998 10.80002c-4.8 0-7.8 2.4-8.999998 7.2 1.799998-2.4 3.899998-3.3 6.299998-2.7 1.36934.3426 2.348 1.336 3.43138 2.4353 1.7646 1.7913 3.8073 3.8647 8.2686 3.8647 4.8 0 7.8-2.4 9-7.2-1.8 2.4-3.9 3.3-6.3 2.7-1.3693-.342-2.348-1.336-3.4313-2.4354-1.7647-1.7913-3.8073-3.8646-8.26868-3.8646z" fill="#38bdf8" fill-rule="evenodd"/></g></svg>