<svg fill="none" height="37" viewBox="0 0 37 37" width="37" xmlns="http://www.w3.org/2000/svg" xmlns:xlink="http://www.w3.org/1999/xlink"><clipPath id="a"><path d="m.397827.491028h36v36h-36z"/></clipPath><g clip-path="url(#a)"><path d="m8.80014 6.35284h19.46826l5.7048 5.95586-16.1414 18.079-15.01149-18.079z" fill="#18253f"/><g fill="#274d82"><path d="m21.7445 26.1175h-7.6305l-3.4463-4.2191 9.7662-.0003.0003-.5985h5.5826z"/><path d="m32.335 10.6101-21.0546 12.1558-2.74653-3.436 16.29983-9.41095-.2994-.51875 4.3415-2.50658z"/><path d="m21.0544 6.35889-15.80937 9.12751-2.45871-3.0693 10.58498-6.11125z"/></g><path d="m29.0294 4.56396h-20.97003l-7.661543 7.62214 17.394373 20.9463 1.3876-1.557 17.218-19.3178zm-.7661 1.79459 5.6914 5.94285-16.1144 18.0798-15.01393-18.0798 5.97354-5.94285z" fill="#000"/><path d="m29.0294 4.56396h-20.97003l-7.661543 7.62214 17.394373 20.9463 1.3876-1.557 17.218-19.3178zm-.7661 1.79459 5.6914 5.94285-16.1144 18.0798-15.01393-18.0798 5.97354-5.94285z" fill="#3068b7"/></g></svg>