<svg fill="none" height="20" viewBox="0 0 99 20" width="99" xmlns="http://www.w3.org/2000/svg"><g fill="#fff"><path clip-rule="evenodd" d="m10 0h-10l10 10h-10l10 10h10l-10-10h10z" fill-rule="evenodd"/><path d="m64.2964 6.15199c0-.97067.2133-1.696.64-2.176.4267-.49067 1.0453-.736 1.856-.736.2666 0 .4907.02133.672.064.192.04267.3413.09067.448.144v1.328h-.16c-.576 0-.9547.11733-1.136.352-.1814.224-.272.56533-.272 1.024v.272h1.568v1.584h-1.568v6.99201h-2.048v-6.99201h-1.104v-1.584h1.104z"/><path clip-rule="evenodd" d="m69.7487 14.696c.6187.3626 1.3547.544 2.208.544.832 0 1.552-.176 2.16-.528.6187-.352 1.0934-.864 1.424-1.536.3414-.672.512-1.488.512-2.448 0-.93871-.1653-1.74404-.496-2.41604-.3306-.68267-.8053-1.20533-1.424-1.568-.608-.37333-1.3333-.56-2.176-.56-.832 0-1.5573.176-2.176.528-.6186.352-1.0986.86933-1.44 1.552-.3306.672-.496 1.49333-.496 2.46404 0 .928.1654 1.7333.496 2.416.3307.672.8 1.1893 1.408 1.552zm3.68-1.872c-.3413.48-.832.72-1.472.72-.6506 0-1.1466-.2454-1.488-.736-.3413-.4907-.512-1.184-.512-2.08 0-.92804.1707-1.63204.512-2.11204.3414-.49067.8374-.736 1.488-.736.64 0 1.1307.24533 1.472.736.3414.49067.512 1.19467.512 2.11204 0 .9066-.1706 1.6053-.512 2.096z" fill-rule="evenodd"/><path d="m76.9014 15v-8.57604h2.048v1.26577c.2587-.46817.5681-.82076.928-1.05777.4373-.29867.912-.448 1.424-.448.1706 0 .3306.02133.48.064.16.04267.2773.10133.352.176v1.776c-.1387-.04267-.2827-.06933-.432-.08-.1494-.02133-.32-.032-.512-.032-.384 0-.72.05867-1.008.176-.2774.10667-.5067.26667-.688.48-.1814.20267-.32.448-.416.736-.0854.27733-.128.59734-.128.96004v4.56z"/><path clip-rule="evenodd" d="m83.6496 14.504c.5333.352 1.1626.528 1.888.528.9707 0 1.744-.3734 2.32-1.12.0107-.0142.0214-.0285.032-.0429v1.4349c0 .6826-.16 1.1626-.48 1.44-.3094.2773-.72.416-1.232.416-.5013 0-.9227-.1227-1.264-.368-.3307-.2347-.528-.576-.592-1.024h-2.064c.1493 1.024.5813 1.7813 1.296 2.272.7146.4906 1.6.736 2.656.736.7146 0 1.3493-.1334 1.904-.4.5653-.256 1.008-.6454 1.328-1.168.3306-.512.496-1.1574.496-1.936v-8.84804h-2.048v.88918c-.5331-.75279-1.3171-1.12918-2.352-1.12918-1.0773 0-1.936.384-2.576 1.152-.6294.75733-.944 1.85067-.944 3.28004 0 .9173.1386 1.7066.416 2.368.288.6506.6933 1.1573 1.216 1.52zm4.24-3.888c0 .8853-.1653 1.5626-.496 2.032-.32.4586-.784.688-1.392.688s-1.072-.2347-1.392-.704c-.32-.4694-.48-1.1414-.48-2.016 0-.88537.16-1.56271.48-2.03204s.784-.704 1.392-.704c.5973 0 1.0613.24 1.392.72.3307.46933.496 1.14133.496 2.01604z" fill-rule="evenodd"/><path clip-rule="evenodd" d="m92.8924 11.128h6.0518v-.48c0-.92804-.1654-1.72271-.496-2.38404-.3307-.66133-.8-1.17333-1.408-1.536s-1.328-.544-2.16-.544c-.8213 0-1.5414.176-2.16.528-.6187.352-1.0987.86933-1.44 1.552-.3307.672-.496 1.49333-.496 2.46404 0 .928.1653 1.7333.496 2.416.3413.672.8266 1.1893 1.456 1.552.6293.3626 1.3706.544 2.224.544 1.024 0 1.8933-.256 2.608-.768.7253-.5227 1.2053-1.28 1.44-2.272h-2.16c-.128.4586-.3573.8-.688 1.024-.32.224-.72.336-1.2.336-.672 0-1.1893-.2454-1.552-.736-.2984-.4159-.4703-.9813-.5158-1.696zm3.9154-1.28004c-.0757-.51126-.2275-.92726-.4556-1.248-.3414-.49067-.832-.736-1.472-.736-.6507 0-1.1467.24533-1.488.736-.2239.32189-.3744.73789-.4514 1.248z" fill-rule="evenodd"/><path d="m58.4458 9.76794v1.74396h4.384v-1.74396z"/><path d="m54.374 12.3281v-4.32005h-1.104v-1.25353l-2.6061 3.81348 3.056 4.432h-2.416l-1.6-2.4-.4025-.7617-.4135.7617-1.552 2.4h-2.208l3.056-4.432-2.832-4.14405h2.416l1.36 2.096.416.78821.416-.78821 1.344-2.096 3.0701.00011v-1.96801h2.048v1.96801h1.808v1.58399h-1.808v4.14405c0 .448.0907.7893.272 1.024.1814.2346.5547.352 1.12.352h.384v1.504c-.1066.064-.272.112-.496.144-.224.0426-.4746.064-.752.064-.8746 0-1.5253-.2454-1.952-.736-.416-.4907-.624-1.216-.624-2.176z"/><path clip-rule="evenodd" d="m39.3714 11.128c.0455.7147.2174 1.2801.5158 1.696.3627.4906.88.736 1.552.736.48 0 .88-.112 1.2-.336.3306-.224.56-.5654.688-1.024h2.16c-.2347.992-.7147 1.7493-1.44 2.272-.7147.512-1.584.768-2.608.768-.8533 0-1.5947-.1814-2.224-.544-.6294-.3627-1.1147-.88-1.456-1.552-.3307-.6827-.496-1.488-.496-2.416 0-.97071.1653-1.79204.496-2.46404.3413-.68267.8213-1.2 1.44-1.552s1.3387-.528 2.16-.528c.832 0 1.552.18133 2.16.544s1.0773.87467 1.408 1.536.496 1.456.496 2.38404v.48zm3.4598-2.52804c.2281.32074.3799.73674.4556 1.248h-3.867c.077-.51011.2275-.92611.4514-1.248.3413-.49067.8373-.736 1.488-.736.64 0 1.1307.24533 1.472.736z" fill-rule="evenodd"/><path d="m28.9438 6.42396v8.57604h2.048v-4.976c0-.28804.0427-.56004.128-.81604.0854-.26667.208-.496.368-.688.16-.20267.352-.35733.576-.464.2347-.11733.4907-.176.768-.176.352 0 .64.06933.864.208s.3894.34667.496.624c.1174.26667.176.59733.176.992v5.29604h2.048v-5.71204c0-.69333-.1226-1.26933-.368-1.728-.2346-.45867-.5706-.8-1.008-1.024-.4266-.23467-.928-.352-1.504-.352-.5973 0-1.1306.144-1.6.432-.3754.22699-.69.55044-.944.97035v-1.16235z"/></g></svg>