<svg width="91" height="16" viewBox="0 0 91 16" fill="none" xmlns="http://www.w3.org/2000/svg">
<path d="M87.0826 12.0356C86.3716 12.0356 85.7576 11.8879 85.2406 11.5924C84.7266 11.2939 84.3311 10.8722 84.0542 10.3275C83.7772 9.77968 83.6387 9.13491 83.6387 8.3932C83.6387 7.6638 83.7772 7.02364 84.0542 6.47274C84.3342 5.91877 84.7251 5.4879 85.2267 5.18013C85.7284 4.86929 86.3178 4.71387 86.9949 4.71387C87.4319 4.71387 87.8443 4.78465 88.2321 4.92622C88.6229 5.06472 88.9676 5.28015 89.2662 5.57253C89.5678 5.86491 89.8047 6.2373 89.9771 6.68972C90.1494 7.13906 90.2356 7.67457 90.2356 8.29625V8.80868H84.4235V7.68226H88.6337C88.6306 7.36219 88.5614 7.0775 88.426 6.82821C88.2905 6.57585 88.1013 6.37734 87.8581 6.23269C87.6181 6.08804 87.338 6.01571 87.0179 6.01571C86.6763 6.01571 86.3762 6.09881 86.1177 6.265C85.8592 6.42812 85.6576 6.64355 85.513 6.91131C85.3714 7.17599 85.2991 7.46683 85.296 7.78382V8.76713C85.296 9.17954 85.3714 9.53347 85.5222 9.82892C85.673 10.1213 85.8838 10.346 86.1547 10.5029C86.4255 10.6568 86.7425 10.7338 87.1056 10.7338C87.3488 10.7338 87.5688 10.6999 87.7658 10.6322C87.9628 10.5614 88.1336 10.4583 88.2782 10.3229C88.4229 10.1875 88.5321 10.0197 88.606 9.81969L90.1664 9.99512C90.0679 10.4075 89.8801 10.7676 89.6032 11.0754C89.3292 11.3801 88.9784 11.617 88.5506 11.7863C88.1228 11.9525 87.6335 12.0356 87.0826 12.0356Z" fill="white"/>
<path d="M78.902 14.7039C78.3018 14.7039 77.7863 14.6224 77.3555 14.4593C76.9246 14.2992 76.5784 14.0838 76.3168 13.8129C76.0552 13.5421 75.8736 13.242 75.772 12.9127L77.277 12.548C77.3447 12.6865 77.4432 12.8235 77.5724 12.9589C77.7017 13.0974 77.8756 13.2113 78.0941 13.3005C78.3157 13.3928 78.5942 13.439 78.9297 13.439C79.4036 13.439 79.796 13.3236 80.1069 13.0928C80.4177 12.865 80.5732 12.4896 80.5732 11.9664V10.623H80.4901C80.4039 10.7953 80.2777 10.9723 80.1115 11.1539C79.9484 11.3354 79.7314 11.4878 79.4606 11.6109C79.1928 11.734 78.8558 11.7955 78.4496 11.7955C77.9048 11.7955 77.4109 11.6678 76.9677 11.4124C76.5276 11.1539 76.1767 10.7691 75.9151 10.2583C75.6566 9.74429 75.5273 9.10106 75.5273 8.32857C75.5273 7.54992 75.6566 6.89284 75.9151 6.35733C76.1767 5.81874 76.5291 5.41095 76.9723 5.13397C77.4155 4.8539 77.9094 4.71387 78.4542 4.71387C78.8697 4.71387 79.2113 4.78465 79.479 4.92622C79.7499 5.06472 79.9653 5.23245 80.1254 5.42942C80.2854 5.62331 80.407 5.80643 80.4901 5.97878H80.5824V4.8062H82.2305V12.0125C82.2305 12.6188 82.0858 13.1205 81.7965 13.5175C81.5072 13.9145 81.1117 14.2115 80.6101 14.4085C80.1084 14.6054 79.5391 14.7039 78.902 14.7039ZM78.9158 10.4845C79.2698 10.4845 79.5714 10.3983 79.8207 10.2259C80.07 10.0536 80.2592 9.80584 80.3885 9.48269C80.5178 9.15953 80.5824 8.77175 80.5824 8.31934C80.5824 7.87308 80.5178 7.48221 80.3885 7.14675C80.2623 6.81129 80.0746 6.55122 79.8253 6.36657C79.5791 6.17883 79.2759 6.08496 78.9158 6.08496C78.5434 6.08496 78.2326 6.18191 77.9833 6.3758C77.734 6.56969 77.5463 6.83591 77.4201 7.17445C77.2939 7.50991 77.2308 7.89154 77.2308 8.31934C77.2308 8.75328 77.2939 9.13337 77.4201 9.45961C77.5494 9.78276 77.7386 10.0351 77.9879 10.2167C78.2403 10.3952 78.5496 10.4845 78.9158 10.4845Z" fill="white"/>
<path d="M70.9551 11.8976V4.80664H72.5755V5.98846H72.6493C72.7786 5.57913 73.0002 5.26367 73.3141 5.04208C73.6311 4.81741 73.9927 4.70508 74.399 4.70508C74.4913 4.70508 74.5944 4.70969 74.7083 4.71893C74.8252 4.72508 74.9222 4.73585 74.9991 4.75124V6.28853C74.9283 6.26391 74.816 6.24237 74.6621 6.2239C74.5113 6.20236 74.3651 6.19158 74.2235 6.19158C73.9189 6.19158 73.6449 6.25775 73.4018 6.39009C73.1618 6.51935 72.9725 6.6994 72.834 6.93022C72.6955 7.16104 72.6262 7.42726 72.6262 7.72887V11.8976H70.9551Z" fill="white"/>
<path d="M66.1399 12.0356C65.4474 12.0356 64.8473 11.8833 64.3395 11.5786C63.8317 11.2739 63.4377 10.8476 63.1577 10.2998C62.8807 9.75198 62.7422 9.11183 62.7422 8.37935C62.7422 7.64687 62.8807 7.00518 63.1577 6.45428C63.4377 5.90338 63.8317 5.47559 64.3395 5.1709C64.8473 4.86621 65.4474 4.71387 66.1399 4.71387C66.8324 4.71387 67.4325 4.86621 67.9403 5.1709C68.4482 5.47559 68.8406 5.90338 69.1175 6.45428C69.3976 7.00518 69.5376 7.64687 69.5376 8.37935C69.5376 9.11183 69.3976 9.75198 69.1175 10.2998C68.8406 10.8476 68.4482 11.2739 67.9403 11.5786C67.4325 11.8833 66.8324 12.0356 66.1399 12.0356ZM66.1491 10.6968C66.5246 10.6968 66.8385 10.5937 67.0909 10.3875C67.3433 10.1782 67.531 9.89817 67.6541 9.54732C67.7803 9.19647 67.8434 8.8056 67.8434 8.37473C67.8434 7.94078 67.7803 7.54838 67.6541 7.19753C67.531 6.8436 67.3433 6.562 67.0909 6.35272C66.8385 6.14344 66.5246 6.0388 66.1491 6.0388C65.7644 6.0388 65.4444 6.14344 65.1889 6.35272C64.9366 6.562 64.7473 6.8436 64.6211 7.19753C64.498 7.54838 64.4364 7.94078 64.4364 8.37473C64.4364 8.8056 64.498 9.19647 64.6211 9.54732C64.7473 9.89817 64.9366 10.1782 65.1889 10.3875C65.4444 10.5937 65.7644 10.6968 66.1491 10.6968Z" fill="white"/>
<path d="M62.0043 4.80682V6.09943H57.8125V4.80682H62.0043ZM58.8604 11.8977V4.13743C58.8604 3.66039 58.9589 3.26338 59.1559 2.94638C59.3559 2.62938 59.6237 2.3924 59.9592 2.23544C60.2946 2.07848 60.667 2 61.0764 2C61.3657 2 61.6226 2.02308 61.8473 2.06925C62.072 2.11541 62.2382 2.15696 62.3459 2.19389L62.0135 3.48651C61.9427 3.46496 61.8535 3.44342 61.7457 3.42188C61.638 3.39725 61.518 3.38494 61.3857 3.38494C61.0748 3.38494 60.8548 3.46035 60.7255 3.61115C60.5993 3.75888 60.5362 3.97124 60.5362 4.24822V11.8977H58.8604Z" fill="white"/>
<path d="M56.6548 7.27148V8.64719H52.3984V7.27148H56.6548Z" fill="white"/>
<path d="M51.1877 4.80629V6.0989H47.1113V4.80629H51.1877ZM48.1177 3.10742H49.7889V9.76438C49.7889 9.98905 49.8227 10.1614 49.8904 10.2814C49.9612 10.3984 50.0536 10.4784 50.1674 10.5215C50.2813 10.5646 50.4075 10.5861 50.546 10.5861C50.6506 10.5861 50.746 10.5784 50.8322 10.563C50.9215 10.5476 50.9892 10.5338 51.0353 10.5215L51.3169 11.8279C51.2277 11.8587 51.1 11.8926 50.9338 11.9295C50.7707 11.9664 50.5706 11.988 50.3336 11.9941C49.9151 12.0065 49.5381 11.9434 49.2026 11.8049C48.8671 11.6633 48.6009 11.4448 48.4039 11.1493C48.2101 10.8539 48.1146 10.4846 48.1177 10.0414V3.10742Z" fill="white"/>
<path d="M41.7012 4.80664L43.1323 7.42418L44.5865 4.80664H46.3546L44.2172 8.3521L46.3915 11.8976H44.6326L43.1323 9.34464L41.6458 11.8976H39.873L42.0336 8.3521L39.9284 4.80664H41.7012Z" fill="white"/>
<path d="M35.9205 12.0356C35.2095 12.0356 34.5955 11.8879 34.0785 11.5924C33.5645 11.2939 33.169 10.8722 32.892 10.3275C32.6151 9.77968 32.4766 9.13491 32.4766 8.3932C32.4766 7.6638 32.6151 7.02364 32.892 6.47274C33.1721 5.91877 33.563 5.4879 34.0646 5.18013C34.5663 4.86929 35.1557 4.71387 35.8327 4.71387C36.2698 4.71387 36.6822 4.78465 37.07 4.92622C37.4608 5.06472 37.8055 5.28015 38.104 5.57253C38.4057 5.86491 38.6426 6.2373 38.815 6.68972C38.9873 7.13906 39.0735 7.67457 39.0735 8.29625V8.80868H33.2614V7.68226H37.4716C37.4685 7.36219 37.3993 7.0775 37.2639 6.82821C37.1284 6.57585 36.9392 6.37734 36.696 6.23269C36.456 6.08804 36.1759 6.01571 35.8558 6.01571C35.5142 6.01571 35.2141 6.09881 34.9556 6.265C34.6971 6.42812 34.4955 6.64355 34.3509 6.91131C34.2093 7.17599 34.137 7.46683 34.1339 7.78382V8.76713C34.1339 9.17954 34.2093 9.53347 34.3601 9.82892C34.5109 10.1213 34.7217 10.346 34.9925 10.5029C35.2634 10.6568 35.5804 10.7338 35.9435 10.7338C36.1867 10.7338 36.4067 10.6999 36.6037 10.6322C36.8007 10.5614 36.9715 10.4583 37.1161 10.3229C37.2608 10.1875 37.37 10.0197 37.4439 9.81969L39.0043 9.99512C38.9058 10.4075 38.718 10.7676 38.4411 11.0754C38.1671 11.3801 37.8163 11.617 37.3885 11.7863C36.9607 11.9525 36.4714 12.0356 35.9205 12.0356Z" fill="white"/>
<path d="M26.5305 7.74228V11.8971H24.8594V4.8062H26.4567V6.0111H26.5398C26.7029 5.61408 26.9629 5.29862 27.32 5.06472C27.68 4.83082 28.1248 4.71387 28.6541 4.71387C29.1435 4.71387 29.5697 4.81851 29.9329 5.02779C30.2991 5.23707 30.5823 5.54022 30.7823 5.93723C30.9854 6.33425 31.0855 6.8159 31.0824 7.38219V11.8971H29.4112V7.64071C29.4112 7.16675 29.2881 6.7959 29.0419 6.52814C28.7988 6.26039 28.4618 6.12651 28.0309 6.12651C27.7385 6.12651 27.4785 6.19114 27.2507 6.3204C27.026 6.44658 26.8491 6.62971 26.7198 6.86976C26.5936 7.10982 26.5305 7.40066 26.5305 7.74228Z" fill="white"/>
<g clip-path="url(#clip0_859_36)">
<mask id="mask0_859_36" style="mask-type:luminance" maskUnits="userSpaceOnUse" x="0" y="0" width="16" height="16">
<path d="M0 0H16V16H0V0Z" fill="white"/>
</mask>
<g mask="url(#mask0_859_36)">
<path fill-rule="evenodd" clip-rule="evenodd" d="M8 0H0L8 8H0L8 16H16L8 8H16L8 0Z" fill="white"/>
</g>
</g>
<defs>
<clipPath id="clip0_859_36">
<rect width="16" height="16" fill="white"/>
</clipPath>
</defs>
</svg>
