<svg fill="none" height="24" viewBox="0 0 99 24" width="99" xmlns="http://www.w3.org/2000/svg"><g fill="#000"><path clip-rule="evenodd" d="m10 2h-10l10 10h-10l10 10h10l-10-10h10z" fill-rule="evenodd"/><path d="m64.2964 8.15199c0-.97067.2133-1.696.64-2.176.4267-.49067 1.0453-.736 1.856-.736.2666 0 .4907.02133.672.064.192.04267.3413.09067.448.144v1.328h-.16c-.576 0-.9547.11733-1.136.352-.1814.224-.272.56533-.272 1.024v.272h1.568v1.58401h-1.568v6.992h-2.048v-6.992h-1.104v-1.58401h1.104z"/><path clip-rule="evenodd" d="m69.7487 16.696c.6187.3626 1.3547.544 2.208.544.832 0 1.552-.176 2.16-.528.6187-.352 1.0934-.864 1.424-1.536.3414-.672.512-1.488.512-2.448 0-.9387-.1653-1.744-.496-2.416-.3306-.68271-.8053-1.20537-1.424-1.56804-.608-.37333-1.3333-.56-2.176-.56-.832 0-1.5573.176-2.176.528-.6186.352-1.0986.86933-1.44 1.55204-.3306.672-.496 1.4933-.496 2.464 0 .928.1654 1.7333.496 2.416.3307.672.8 1.1893 1.408 1.552zm3.68-1.872c-.3413.48-.832.72-1.472.72-.6506 0-1.1466-.2454-1.488-.736-.3413-.4907-.512-1.184-.512-2.08 0-.928.1707-1.632.512-2.112.3414-.4907.8374-.73604 1.488-.73604.64 0 1.1307.24534 1.472.73604.3414.4906.512 1.1946.512 2.112 0 .9066-.1706 1.6053-.512 2.096z" fill-rule="evenodd"/><path d="m76.9014 17v-8.57604h2.048v1.26577c.2587-.46817.5681-.82076.928-1.05777.4373-.29867.912-.448 1.424-.448.1706 0 .3306.02133.48.064.16.04267.2773.10133.352.176v1.77604c-.1387-.0427-.2827-.0694-.432-.08-.1494-.0214-.32-.032-.512-.032-.384 0-.72.0586-1.008.176-.2774.1066-.5067.2666-.688.48-.1814.2026-.32.448-.416.736-.0854.2773-.128.5973-.128.96v4.56z"/><path clip-rule="evenodd" d="m83.6496 16.504c.5333.352 1.1626.528 1.888.528.9707 0 1.744-.3734 2.32-1.12.0107-.0142.0214-.0285.032-.0429v1.4349c0 .6826-.16 1.1626-.48 1.44-.3094.2773-.72.416-1.232.416-.5013 0-.9227-.1227-1.264-.368-.3307-.2347-.528-.576-.592-1.024h-2.064c.1493 1.024.5813 1.7813 1.296 2.272.7146.4906 1.6.736 2.656.736.7146 0 1.3493-.1334 1.904-.4.5653-.256 1.008-.6454 1.328-1.168.3306-.512.496-1.1574.496-1.936v-8.84804h-2.048v.88918c-.5331-.75279-1.3171-1.12918-2.352-1.12918-1.0773 0-1.936.384-2.576 1.152-.6294.75734-.944 1.85064-.944 3.28004 0 .9173.1386 1.7066.416 2.368.288.6506.6933 1.1573 1.216 1.52zm4.24-3.888c0 .8853-.1653 1.5626-.496 2.032-.32.4586-.784.688-1.392.688s-1.072-.2347-1.392-.704c-.32-.4694-.48-1.1414-.48-2.016 0-.8854.16-1.5627.48-2.032.32-.4694.784-.70404 1.392-.70404.5973 0 1.0613.24004 1.392.72004.3307.4693.496 1.1413.496 2.016z" fill-rule="evenodd"/><path clip-rule="evenodd" d="m92.8924 13.128h6.0518v-.48c0-.928-.1654-1.7227-.496-2.384-.3307-.66137-.8-1.17337-1.408-1.53604s-1.328-.544-2.16-.544c-.8213 0-1.5414.176-2.16.528-.6187.352-1.0987.86933-1.44 1.55204-.3307.672-.496 1.4933-.496 2.464 0 .928.1653 1.7333.496 2.416.3413.672.8266 1.1893 1.456 1.552.6293.3626 1.3706.544 2.224.544 1.024 0 1.8933-.256 2.608-.768.7253-.5227 1.2053-1.28 1.44-2.272h-2.16c-.128.4586-.3573.8-.688 1.024-.32.224-.72.336-1.2.336-.672 0-1.1893-.2454-1.552-.736-.2984-.4159-.4703-.9813-.5158-1.696zm3.9154-1.28c-.0757-.5113-.2275-.9273-.4556-1.248-.3414-.4907-.832-.73604-1.472-.73604-.6507 0-1.1467.24534-1.488.73604-.2239.3219-.3744.7379-.4514 1.248z" fill-rule="evenodd"/><path d="m58.4458 11.7679v1.744h4.384v-1.744z"/><path d="m54.374 14.3281v-4.32h-1.104v-1.25358l-2.6061 3.81348 3.056 4.432h-2.416l-1.6-2.4-.4025-.7617-.4135.7617-1.552 2.4h-2.208l3.056-4.432-2.832-4.14405h2.416l1.36 2.09595.416.7883.416-.7883 1.344-2.09595 3.0701.00011v-1.96801h2.048v1.96801h1.808v1.58404h-1.808v4.144c0 .448.0907.7893.272 1.024.1814.2346.5547.352 1.12.352h.384v1.504c-.1066.064-.272.112-.496.144-.224.0426-.4746.064-.752.064-.8746 0-1.5253-.2454-1.952-.736-.416-.4907-.624-1.216-.624-2.176z"/><path clip-rule="evenodd" d="m39.3714 13.128c.0455.7147.2174 1.2801.5158 1.696.3627.4906.88.736 1.552.736.48 0 .88-.112 1.2-.336.3306-.224.56-.5654.688-1.024h2.16c-.2347.992-.7147 1.7493-1.44 2.272-.7147.512-1.584.768-2.608.768-.8533 0-1.5947-.1814-2.224-.544-.6294-.3627-1.1147-.88-1.456-1.552-.3307-.6827-.496-1.488-.496-2.416 0-.9707.1653-1.792.496-2.464.3413-.68271.8213-1.20004 1.44-1.55204s1.3387-.528 2.16-.528c.832 0 1.552.18133 2.16.544s1.0773.87467 1.408 1.53604c.3307.6613.496 1.456.496 2.384v.48zm3.4598-2.528c.2281.3207.3799.7367.4556 1.248h-3.867c.077-.5101.2275-.9261.4514-1.248.3413-.4907.8373-.73604 1.488-.73604.64 0 1.1307.24534 1.472.73604z" fill-rule="evenodd"/><path d="m28.9438 8.42396v8.57604h2.048v-4.976c0-.288.0427-.56.128-.816.0854-.2667.208-.496.368-.688.16-.2027.352-.3574.576-.464.2347-.11737.4907-.17604.768-.17604.352 0 .64.06933.864.20804.224.1386.3894.3466.496.624.1174.2666.176.5973.176.992v5.296h2.048v-5.712c0-.6934-.1226-1.2694-.368-1.72804-.2346-.45867-.5706-.8-1.008-1.024-.4266-.23467-.928-.352-1.504-.352-.5973 0-1.1306.144-1.6.432-.3754.22699-.69.55044-.944.97035v-1.16235z"/></g></svg>