<svg fill="none" height="84" viewBox="0 0 84 84" width="84" xmlns="http://www.w3.org/2000/svg" xmlns:xlink="http://www.w3.org/1999/xlink"><linearGradient id="a" gradientUnits="userSpaceOnUse" x1="43.9007" x2="22.7679" y1="23.4388" y2="44.5716"><stop offset="0" stop-color="#0096ff"/><stop offset="1" stop-color="#ff1e56"/></linearGradient><radialGradient id="b" cx="0" cy="0" gradientTransform="matrix(0 108 -108 0 42 0)" gradientUnits="userSpaceOnUse" r="1"><stop offset="0"/><stop offset="1"/></radialGradient><linearGradient id="c" gradientUnits="userSpaceOnUse" x1="0" x2="18.375" y1="0" y2="34.125"><stop offset="0"/><stop offset="1" stop-opacity="0"/></linearGradient><rect fill="#fff" height="84" rx="42" width="84"/><path d="m41.8878 27.9263c-7.6986 0-13.962 6.2634-13.962 13.962s6.2634 13.962 13.962 13.962 13.962-6.2634 13.962-13.962-6.2634-13.962-13.962-13.962zm0 21.1874c-3.991 0-7.2254-3.2344-7.2254-7.2254s3.2344-7.2254 7.2254-7.2254 7.2254 3.2344 7.2254 7.2254-3.2344 7.2254-7.2254 7.2254z" fill="#000"/><path clip-rule="evenodd" d="m43.0581 25.6329v-5.213c11.3308.6058 20.332 9.9866 20.332 21.4682s-9.0012 20.8598-20.332 21.4682v-5.213c8.4448-.6032 15.132-7.6596 15.132-16.2552s-6.6872-15.652-15.132-16.2552zm-13.4836 26.9152c-2.2386-2.5844-3.6816-5.876-3.939-9.49h-5.2156c.2704 5.057 2.2932 9.646 5.4626 13.1794l3.6894-3.6894zm11.1437 10.8082v-5.213c-3.6166-.2574-6.9082-1.6978-9.4926-3.939l-3.6894 3.6894c3.536 3.172 8.125 5.1922 13.1794 5.4626z" fill="url(#a)" fill-rule="evenodd"/><rect height="83" rx="41.5" stroke="url(#b)" stroke-opacity=".15" width="83" x=".5" y=".5"/><rect height="83" rx="41.5" stroke="url(#c)" stroke-opacity=".5" width="83" x=".5" y=".5"/></svg>